<svg width="524" height="201" viewBox="0 0 524 201" fill="none" xmlns="http://www.w3.org/2000/svg">
<path d="M139.193 76.6574L138.163 81.5439H104.466L105.7 76.6574C108.754 76.5217 110.825 76.2841 111.911 75.9448C114.356 75.1982 115.581 73.8069 115.586 71.7709C115.59 70.3456 115.558 69.2597 115.492 68.5132L113.897 54.668H89.973L81.4888 69.0222C80.6028 70.5832 80.1584 71.9405 80.1556 73.0943C80.1522 74.5195 81.1339 75.5036 83.1008 76.0466C83.8469 76.2502 85.4074 76.4538 87.7823 76.6574L86.5489 81.5439H57.2297L58.463 76.6574C62.1286 76.3859 65.0491 75.4697 67.2247 73.9087C69.0602 72.6192 71 70.3117 73.0441 66.9862L105.031 16.0848C105.644 15.1347 105.951 14.2185 105.954 13.3362C105.959 10.8929 103.555 8.99259 98.7392 7.63523C95.0089 6.6172 90.7344 6.10818 85.9157 6.10818C74.5816 6.10818 66.1265 8.38178 60.5504 12.929C55.8582 16.7975 53.5045 21.8876 53.4893 28.1994C53.4816 31.3892 54.3569 34.3075 56.1151 36.9544C58.1442 39.8727 60.7197 41.3319 63.8416 41.3319C66.1492 41.3319 67.7124 40.4157 68.5312 38.5832C68.7363 37.9724 69.0802 36.0382 69.5632 32.7805C69.9089 30.1336 70.8644 27.8939 72.4298 26.0615C74.1994 23.9576 76.4077 22.9056 79.0546 22.9056C80.887 22.9056 82.3783 23.6522 83.5285 25.1453C84.7467 26.5705 85.3535 28.2672 85.3487 30.2354C85.3371 35.0541 83.3249 39.2619 79.312 42.8589C75.3672 46.3881 70.7139 48.1527 65.3523 48.1527C59.4477 48.1527 54.5995 46.3542 50.8074 42.7571C47.0156 39.0922 45.1267 34.3414 45.1407 28.5048C45.1605 20.2927 48.2986 13.5737 54.555 8.34784C61.2195 2.78263 70.117 2.56381e-05 81.2474 2.56381e-05C86.2697 2.56381e-05 92.1734 0.373303 98.9585 1.11986C105.812 1.79854 111.715 2.13788 116.67 2.13788H123.083L131.579 67.9024C131.978 71.1601 132.516 73.264 133.192 74.2141C134.139 75.6394 136.139 76.4538 139.193 76.6574ZM113.3 48.5599L110.004 22.2948L93.4489 48.5599H113.3ZM202.513 2.13788L185.245 70.8547C185.107 71.4655 185.038 72.0424 185.037 72.5853C185.03 75.3 186.86 76.6574 190.524 76.6574L189.393 81.5439H169.032L169.752 78.6935C165.673 81.2725 161.429 82.562 157.017 82.562C151.452 82.562 147.112 80.8313 143.999 77.37C140.953 73.9087 139.437 69.3615 139.45 63.7285C139.472 54.6341 142.308 46.8632 147.956 40.4157C153.809 33.6967 161.249 30.3372 170.275 30.3372C175.501 30.3372 179.266 31.1177 181.57 32.6787C182.39 30.0318 183.177 27.3849 183.93 24.7381C185.025 21.0053 185.574 18.4263 185.578 17.0011C185.583 14.6935 183.753 13.6076 180.088 13.7434L181.116 9.56948C187.703 8.0085 193.342 5.5313 198.033 2.13788H202.513ZM180.026 39.6012C178.741 37.5652 176.063 36.5472 171.991 36.5472C166.222 36.5472 161.361 40.2121 157.407 47.5419C154.134 53.7179 152.49 59.9618 152.475 66.2735C152.468 69.0561 153.176 71.2958 154.597 72.9925C156.086 74.6214 158.188 75.4358 160.903 75.4358C167.554 75.4358 171.736 72.0424 173.449 65.2555L180.026 39.6012ZM246.338 43.877L240.172 68.0042C239.829 69.2937 239.657 70.4474 239.654 71.4655C239.648 74.1802 240.731 75.5376 242.902 75.5376C243.785 75.5376 244.668 75.2661 245.551 74.7232L244.01 80.4241C241.292 82.0529 237.998 82.8674 234.13 82.8674C229.311 82.8674 226.532 81.4082 225.792 78.4899C221.51 81.3403 216.756 82.7656 211.53 82.7656C201.078 82.7656 195.861 78.8631 195.88 71.0583C195.895 64.8822 198.689 60.0636 204.263 56.6023C208.681 53.8197 216.322 51.2407 227.187 48.8653L232.789 47.6437L233.714 43.877C233.988 42.7911 234.127 41.773 234.129 40.8229C234.137 37.5652 232.58 35.9364 229.458 35.9364C227.15 35.9364 224.397 37.8367 221.198 41.6373C218.067 45.4379 215.314 47.3382 212.938 47.3382C209.409 47.3382 207.648 45.913 207.655 43.0625C207.662 39.9406 209.807 37.0562 214.089 34.4093C218.643 31.6267 223.838 30.2354 229.675 30.2354C235.037 30.2354 239.208 31.1856 242.19 33.0859C245.24 34.9183 246.76 37.4973 246.752 40.8229C246.75 41.773 246.612 42.7911 246.338 43.877ZM230.939 55.0752L228.8 55.5843C222.145 57.281 217.322 58.9437 214.332 60.5726C210.662 62.6086 208.823 65.1198 208.816 68.106C208.805 72.721 211.48 75.0286 216.842 75.0286C220.168 75.0286 222.749 74.0445 224.586 72.0763C226.423 70.1081 227.89 66.9522 228.986 62.6086L230.939 55.0752ZM348.53 96.5089C348.52 100.717 346.34 103.974 341.991 106.282C338.457 108.25 334.45 109.234 329.971 109.234C324.677 109.234 320.269 108.047 316.745 105.671C312.68 102.889 310.653 99.02 310.665 94.0657C310.67 91.9617 311.529 87.6521 313.241 81.1367L322.077 47.4401C322.351 46.422 322.489 45.4719 322.491 44.5896C322.5 40.7889 320.265 38.8886 315.786 38.8886C313.343 38.8886 310.116 40.0763 306.106 42.4517C306.035 43.6055 305.863 44.8271 305.588 46.1166L299.42 71.1601C299.078 72.3817 298.905 73.4676 298.903 74.4177C298.9 75.5036 299.611 76.2502 301.036 76.6574C301.307 76.7253 302.46 76.9289 304.495 77.2682L303.365 81.5439H277.711L278.739 77.2682C281.794 76.861 283.56 76.5217 284.035 76.2502C285.123 75.7072 285.941 74.2481 286.489 71.8727L292.554 47.4401C292.828 46.3542 292.966 45.404 292.968 44.5896C292.977 40.8568 291.421 38.9904 288.299 38.9904C284.159 38.9904 280.287 40.4496 276.683 43.3679L269.897 71.1601C269.486 72.7889 269.28 73.8748 269.278 74.4177C269.276 75.5036 270.021 76.2502 271.513 76.6574C271.716 76.7253 272.869 76.9289 274.973 77.2682L273.741 81.5439H248.086L249.115 77.2682C252.17 76.861 253.935 76.5217 254.411 76.2502C255.498 75.7072 256.316 74.2481 256.865 71.8727L263.031 47.6437C263.237 46.7614 263.34 45.9809 263.342 45.3022C263.348 42.9947 261.518 41.9088 257.852 42.0445L258.88 37.8706C265.468 36.3096 271.107 33.8324 275.798 30.439H280.277L278.839 35.7327C280.538 34.7147 282.271 33.6628 284.039 32.5769C286.824 31.2195 289.846 30.5408 293.104 30.5408C298.805 30.5408 302.736 32.509 304.899 36.4454C310.609 32.509 316.552 30.5408 322.729 30.5408C326.461 30.5408 329.547 31.5249 331.986 33.4931C334.492 35.4613 335.741 38.2778 335.732 41.9427C335.729 43.3001 335.522 44.6914 335.111 46.1166L325.964 82.1547C324.388 88.3986 323.596 93.0137 323.589 95.9999C323.577 101.09 325.437 103.635 329.17 103.635C331.003 103.635 332.43 102.583 333.453 100.479C334.477 98.3753 335.466 96.3053 336.421 94.2693C337.851 92.0975 339.89 91.0116 342.537 91.0116C344.165 91.0116 345.556 91.5206 346.707 92.5386C347.926 93.5566 348.534 94.8801 348.53 96.5089ZM468.804 72.4835C468.796 75.6733 467.194 78.5577 463.998 81.1367C460.259 84.1229 455.267 85.616 449.023 85.616C442.507 85.616 435.522 83.2746 428.068 78.5917C421.136 82.3923 413.734 84.2926 405.861 84.2926C396.496 84.2926 389.002 81.9172 383.38 77.1664C378.097 72.6192 375.464 66.8165 375.481 59.7582C375.498 52.9035 377.48 47.0668 381.428 42.2481C384.491 38.4475 389.047 35.0201 395.094 31.9661C394.76 29.9979 394.595 28.0297 394.599 26.0615C394.617 18.7996 396.837 12.7254 401.26 7.83883C405.48 3.02017 410.576 0.610846 416.548 0.610846C421.706 0.610846 425.809 1.90035 428.857 4.47934C431.634 6.85474 433.018 9.97668 433.008 13.8452C432.997 18.7317 430.577 23.211 425.748 27.2831C423.776 28.9798 418.576 32.3733 410.148 37.4634C413.851 49.9512 420.239 60.3011 429.314 68.5132C435.095 63.2873 437.992 58.1972 438.004 53.2428C438.009 51.2067 437.47 49.4082 436.388 47.8473C435.374 46.2184 434.869 44.5556 434.873 42.8589C434.878 40.8907 435.662 39.194 437.227 37.7688C438.791 36.2757 440.761 35.5291 443.137 35.5291C445.444 35.5291 447.444 36.4114 449.137 38.176C450.964 40.1442 451.874 42.6893 451.867 45.8112C451.857 50.0191 450.454 54.6341 447.66 59.6564C444.661 64.8822 440.714 69.4973 435.817 73.5015C440.29 76.352 444.494 77.7772 448.431 77.7772C450.738 77.7772 452.505 77.0646 453.73 75.6394C454.478 74.8928 455.296 73.4337 456.183 71.2619C457.616 68.0042 459.758 66.3753 462.609 66.3753C464.577 66.3753 466.103 66.9522 467.186 68.106C468.269 69.2597 468.808 70.7189 468.804 72.4835ZM423.137 12.4199C423.141 10.9268 422.567 9.56947 421.416 8.34784C420.265 7.12621 418.672 6.51539 416.636 6.51539C413.921 6.51539 411.746 7.80489 410.111 10.3839C408.476 12.9629 407.654 16.3224 407.644 20.4624C407.639 22.4305 407.736 24.3987 407.935 26.3669C413.03 24.1951 416.632 22.2609 418.74 20.5642C421.664 18.1888 423.13 15.474 423.137 12.4199ZM421.462 73.9087C411.573 65.8324 404.13 56.2969 399.134 45.3022C393.761 50.1887 391.067 55.6861 391.052 61.7942C391.041 66.4093 392.797 70.0402 396.32 72.6871C399.843 75.334 404.387 76.6574 409.952 76.6574C413.753 76.6574 417.589 75.7412 421.462 73.9087ZM116.274 109.324C116.265 113.193 114.594 116.416 111.262 118.995C107.591 121.778 102.565 123.169 96.1854 123.169C87.9054 123.169 79.46 121.405 70.8492 117.876C72.4689 121.676 77.0735 126.02 84.6631 130.906C94.4888 137.218 100.756 141.697 103.464 144.344C109.761 150.452 112.901 157.409 112.882 165.214C112.86 174.105 108.601 181.299 100.105 186.796C92.2875 191.886 82.8137 194.431 71.6833 194.431C61.0958 194.431 52.4822 192.022 45.8427 187.203C38.9318 182.317 35.4862 175.801 35.5058 167.657C35.5198 161.82 37.5337 156.9 41.5476 152.896C45.5616 148.824 50.3513 146.788 55.9165 146.788C60.9388 146.788 64.9738 148.111 68.0215 150.758C70.5272 152.998 71.7766 155.577 71.7696 158.495C71.7647 160.531 71.0479 162.262 69.6193 163.687C68.2585 165.112 66.56 165.825 64.524 165.825C61.945 165.825 59.6404 164.603 57.6102 162.16C55.58 159.717 53.6487 158.495 51.8162 158.495C49.7123 158.495 47.8774 159.513 46.3115 161.549C44.7457 163.585 43.9591 166.13 43.9517 169.184C43.939 174.478 46.5413 178.923 51.7585 182.52C57.0436 186.117 63.5547 187.916 71.2917 187.916C79.0966 187.916 85.4469 186.016 90.3426 182.215C95.3059 178.482 97.7952 173.46 97.8104 167.148C97.8218 162.397 95.7625 157.952 91.6324 153.812C89.0596 151.233 84.4866 147.84 77.9135 143.632C70.3238 138.813 65.2087 135.08 62.5682 132.433C57.8284 127.818 55.4652 122.762 55.4784 117.265C55.4838 115.025 55.7605 112.853 56.3085 110.749C47.4294 105.863 42.1425 103.012 40.4478 102.198C34.8887 99.6191 30.0053 98.3296 25.7974 98.3296C20.3001 98.3296 15.7483 100.23 12.1421 104.031C8.80827 107.492 7.13595 111.462 7.12519 115.941C7.11475 120.285 8.12455 123.712 10.1546 126.223C12.2526 128.667 14.8287 129.888 17.8828 129.888C20.9369 129.888 22.4667 128.735 22.4722 126.427C22.4731 126.088 22.4742 125.613 22.4757 125.002C22.4094 124.323 22.3767 123.814 22.3775 123.475C22.3821 121.574 23.167 119.742 24.7322 117.977C26.3653 116.213 28.4035 115.331 30.8467 115.331C33.29 115.331 35.2898 116.281 36.8463 118.181C38.1997 119.81 38.8739 121.676 38.8689 123.78C38.861 127.038 37.3268 130.024 34.2662 132.739C30.9336 135.657 27.0277 137.116 22.5484 137.116C16.033 137.116 10.6759 135.216 6.47719 131.415C2.27863 127.547 0.186854 122.491 0.201855 116.247C0.217997 109.528 2.47128 103.861 6.96169 99.2458C11.4523 94.5629 17.2267 92.2214 24.2851 92.2214C29.2395 92.2214 34.8352 93.6466 41.0723 96.4971C43.8518 97.7866 49.5453 100.875 58.1529 105.761C60.6074 101.078 64.4507 97.4473 69.6828 94.8683C74.9149 92.2893 80.9922 90.9998 87.9148 90.9998C96.6699 90.9998 103.723 92.968 109.076 96.9043C113.886 100.433 116.285 104.573 116.274 109.324ZM110.066 108.306C110.073 105.32 108.519 102.741 105.402 100.569C101.946 98.1938 97.3341 97.0061 91.5653 97.0061C85.4571 97.0061 80.3632 98.5671 76.2836 101.689C72.476 104.607 70.3638 108.035 69.9471 111.971C78.9634 116.247 87.4079 118.385 95.2806 118.385C99.9636 118.385 103.665 117.333 106.385 115.229C108.832 113.396 110.06 111.089 110.066 108.306ZM155.704 122.457L154.06 128.769H142.658L134.44 159.309C134.166 160.327 134.028 161.345 134.026 162.363C134.019 165.146 135.305 166.537 137.884 166.537C139.581 166.537 141.279 165.825 142.979 164.399L144.603 166.436C140.723 171.39 136.204 173.867 131.046 173.867C124.327 173.867 120.974 170.983 120.988 165.214C120.991 163.721 121.199 162.228 121.609 160.735L130.035 128.26H124.029L125.366 122.66C129.032 121.982 132.77 119.878 136.579 116.349C140.048 113.091 142.602 109.562 144.24 105.761H148.414L145.433 117.672C145.159 118.622 145.022 119.403 145.02 120.014C145.016 121.642 145.964 122.457 147.865 122.457H155.704ZM204.855 141.697C204.781 144.276 204.235 145.566 203.217 145.566H167.484C166.732 148.077 166.319 150.385 166.246 152.489C166.031 157.171 167.04 160.802 169.274 163.381C171.304 165.689 173.982 166.843 177.308 166.843C180.226 166.843 183.419 165.621 186.886 163.178C189.946 161.006 192.327 158.495 194.031 155.644L200.54 158.291C198.494 162.16 195.296 165.553 190.946 168.472C185.712 171.933 180.006 173.663 173.83 173.663C167.043 173.663 161.585 171.729 157.454 167.861C153.323 163.992 151.367 159.038 151.585 152.998C151.945 144.378 155.356 136.981 161.819 130.805C168.281 124.561 175.788 121.439 184.34 121.439C191.737 121.439 197.23 123.611 200.816 127.954C203.726 131.551 205.072 136.132 204.855 141.697ZM191.532 136.098C191.749 130.533 189.245 127.751 184.019 127.751C178.929 127.751 174.407 131.415 170.453 138.745H189.388C190.746 138.745 191.46 137.863 191.532 136.098ZM262.585 138.033C262.565 146.72 259.355 154.762 252.958 162.16C246.492 169.761 239.255 173.562 231.247 173.562C226.767 173.562 223.002 172.883 219.951 171.526L217.382 181.808C216.971 183.369 216.764 184.455 216.763 185.065C216.76 186.151 217.505 186.898 218.997 187.305C219.201 187.373 220.354 187.577 222.457 187.916L221.225 192.192H195.571L196.599 187.916C199.654 187.509 201.42 187.169 201.895 186.898C202.983 186.355 203.8 184.896 204.349 182.52L215.141 139.661C215.347 138.779 215.451 137.999 215.452 137.32C215.458 135.148 214.035 134.062 211.185 134.062C210.845 134.062 210.404 134.062 209.861 134.062L210.991 129.888C217.578 128.327 223.183 125.85 227.806 122.457H232.387L231.566 125.511C236.866 122.593 242.164 121.133 247.457 121.133C252.412 121.133 256.276 122.932 259.05 126.529C261.418 129.651 262.596 133.485 262.585 138.033ZM249.046 137.727C249.06 132.094 246.182 129.278 240.413 129.278C236.681 129.278 233.012 130.872 229.407 134.062L222.932 159.92C222.726 160.667 222.623 161.345 222.621 161.956C222.613 165.35 225.426 167.046 231.059 167.046C236.013 167.046 240.365 163.415 244.116 156.153C247.388 149.842 249.032 143.7 249.046 137.727ZM318.328 132.942C318.324 134.3 318.151 135.691 317.809 137.116L311.335 162.16C310.924 163.653 310.718 164.739 310.716 165.417C310.714 166.436 311.425 167.182 312.849 167.657C313.12 167.725 314.239 167.929 316.207 168.268L315.178 172.544H295.938L304.876 138.44C305.15 137.422 305.288 136.472 305.291 135.589C305.3 131.789 303.031 129.888 298.483 129.888C295.837 129.888 292.507 131.381 288.496 134.368L281.71 162.16C281.299 163.789 281.093 164.875 281.092 165.417C281.089 166.503 281.834 167.25 283.326 167.657C283.529 167.725 284.683 167.929 286.786 168.268L285.554 172.544H259.899L260.928 168.268C263.983 167.861 265.748 167.521 266.224 167.25C267.311 166.707 268.129 165.248 268.678 162.872L281.937 110.24C282.21 109.358 282.348 108.578 282.35 107.899C282.355 105.727 280.898 104.641 277.98 104.641C277.641 104.641 277.233 104.641 276.758 104.641L277.786 100.467C284.373 98.9064 290.012 96.4292 294.703 93.0358H299.183L290.652 126.732C291.877 125.443 293.916 124.255 296.769 123.169C299.622 122.084 302.508 121.541 305.426 121.541C309.159 121.541 312.244 122.525 314.683 124.493C317.122 126.461 318.336 129.278 318.328 132.942ZM372.478 134.877L366.312 159.004C365.97 160.293 365.797 161.447 365.795 162.465C365.788 165.18 366.871 166.537 369.043 166.537C369.925 166.537 370.808 166.266 371.691 165.723L370.151 171.424C367.432 173.053 364.138 173.867 360.27 173.867C355.451 173.867 352.672 172.408 351.933 169.49C347.65 172.34 342.896 173.765 337.67 173.765C327.218 173.765 322.002 169.863 322.02 162.058C322.035 155.882 324.829 151.063 330.403 147.602C334.821 144.819 342.463 142.24 353.327 139.865L358.929 138.643L359.855 134.877C360.129 133.791 360.267 132.773 360.269 131.823C360.277 128.565 358.72 126.936 355.598 126.936C353.29 126.936 350.537 128.836 347.338 132.637C344.207 136.438 341.454 138.338 339.078 138.338C335.549 138.338 333.788 136.913 333.795 134.062C333.803 130.94 335.947 128.056 340.229 125.409C344.783 122.626 349.979 121.235 355.815 121.235C361.177 121.235 365.349 122.185 368.33 124.086C371.38 125.918 372.901 128.497 372.893 131.823C372.89 132.773 372.752 133.791 372.478 134.877ZM357.079 146.075L354.94 146.584C348.285 148.281 343.462 149.943 340.472 151.572C336.802 153.608 334.964 156.12 334.956 159.106C334.945 163.721 337.621 166.028 342.982 166.028C346.308 166.028 348.889 165.044 350.726 163.076C352.564 161.108 354.03 157.952 355.127 153.608L357.079 146.075ZM446.98 187.509C446.97 191.716 444.824 194.974 440.543 197.282C437.009 199.25 432.968 200.234 428.421 200.234C423.195 200.234 418.82 199.046 415.297 196.671C411.164 193.888 409.103 190.02 409.115 185.065C409.119 183.369 409.978 179.059 411.691 172.136L420.12 138.134C420.326 137.252 420.43 136.472 420.432 135.793C420.441 131.857 418.24 129.888 413.829 129.888C410.164 129.888 406.325 131.381 402.314 134.368L395.528 162.16C395.117 163.789 394.911 164.875 394.91 165.417C394.907 166.503 395.652 167.25 397.144 167.657C397.347 167.725 398.501 167.929 400.604 168.268L399.372 172.544H373.717L374.746 168.268C377.801 167.861 379.566 167.521 380.042 167.25C381.129 166.707 381.947 165.248 382.496 162.872L388.662 138.643C388.868 137.761 388.972 136.981 388.973 136.302C388.978 134.13 387.556 133.044 384.705 133.044C384.366 133.044 383.959 133.044 383.484 133.044L384.512 128.87C391.099 127.309 396.738 124.832 401.429 121.439H405.908L404.47 126.732C409.977 123 415.411 121.133 420.772 121.133C429.324 121.133 433.59 124.968 433.572 132.637C433.568 134.334 433.325 136.234 432.845 138.338L424.312 173.154C422.735 179.67 421.944 184.285 421.937 187C421.925 192.09 423.819 194.635 427.62 194.635C429.452 194.635 430.948 193.549 432.107 191.377C432.994 189.341 433.915 187.305 434.87 185.269C436.301 183.097 438.34 182.011 440.986 182.011C442.683 182.011 444.107 182.52 445.259 183.538C446.41 184.556 446.984 185.88 446.98 187.509ZM470.714 104.947C470.71 106.847 469.857 108.51 468.157 109.935C466.457 111.292 464.386 111.971 461.942 111.971C459.567 111.971 457.499 111.292 455.737 109.935C454.044 108.51 453.2 106.847 453.204 104.947C453.209 102.979 454.061 101.316 455.761 99.9584C457.529 98.601 459.601 97.9223 461.976 97.9223C464.419 97.9223 466.488 98.601 468.181 99.9584C469.875 101.316 470.719 102.979 470.714 104.947ZM465.379 122.457L455.306 162.16C454.895 163.721 454.689 164.807 454.688 165.417C454.685 166.503 455.43 167.25 456.922 167.657C457.126 167.725 458.279 167.929 460.382 168.268L459.15 172.544H433.496L434.524 168.268C437.579 167.861 439.344 167.521 439.82 167.25C440.907 166.707 441.725 165.248 442.274 162.872L448.132 139.661C448.338 138.779 448.442 137.999 448.444 137.32C448.449 135.012 446.619 133.927 442.954 134.062L443.982 129.888C450.569 128.327 456.208 125.85 460.899 122.457H465.379ZM522.592 141.697C522.518 144.276 521.971 145.566 520.953 145.566H485.221C484.468 148.077 484.055 150.385 483.982 152.489C483.768 157.171 484.777 160.802 487.01 163.381C489.041 165.689 491.719 166.843 495.044 166.843C497.963 166.843 501.156 165.621 504.623 163.178C507.682 161.006 510.063 158.495 511.767 155.644L518.276 158.291C516.231 162.16 513.033 165.553 508.682 168.472C503.448 171.933 497.743 173.663 491.567 173.663C484.78 173.663 479.321 171.729 475.19 167.861C471.06 163.992 469.103 159.038 469.322 152.998C469.682 144.378 473.093 136.981 479.555 130.805C486.018 124.561 493.525 121.439 502.076 121.439C509.474 121.439 514.966 123.611 518.553 127.954C521.462 131.551 522.809 136.132 522.592 141.697ZM509.269 136.098C509.486 130.533 506.981 127.751 501.756 127.751C496.665 127.751 492.143 131.415 488.189 138.745H507.125C508.482 138.745 509.197 137.863 509.269 136.098Z" fill="#226244"/>
</svg>
