<svg width="79" height="94" viewBox="0 0 79 94" fill="none" xmlns="http://www.w3.org/2000/svg">
<path d="M30.8738 82.2783C30.015 81.3395 27.2048 79.2395 26.0617 78.4492C25.4081 77.9898 20.7646 75.0218 20.4436 74.9276C19.4267 74.6203 18.7621 76.3877 18.7955 77.1735C18.961 79.8266 22.299 84.4007 24.5691 85.6019C27.3264 87.0799 30.9675 87.5952 33.6906 89.5092C34.987 88.3108 33.648 88.5066 33.4737 88.1343C32.6009 86.246 32.4802 84.0252 30.8726 82.2512M28.6981 76.4576C28.4252 76.2526 28.2979 75.7425 27.9459 75.5411C27.2419 75.1383 23.4012 73.6547 23.0001 74.7858C24.5949 75.6372 26.3777 76.5617 27.8488 77.6088C28.8016 78.2719 30.0365 79.9811 31.105 80.259C32.7078 80.6757 29.926 77.3798 29.6772 77.1195C29.4009 76.8333 28.9996 76.7155 28.6981 76.4576ZM29.464 63.3919C23.6745 62.6744 17.2088 63.4532 11.6995 65.6009C11.3362 65.7529 10.615 65.5681 10.9098 66.2879C11.1437 66.8204 15.7517 70.1972 16.5864 70.5669C22.3223 73.133 27.7763 69.0602 29.464 63.3919ZM9.74124 64.277C14.9938 62.3038 20.3474 61.4662 25.9202 62.0577L26.8039 61.095C23.2632 57.3445 17.685 59.1152 13.752 61.0564C13.3118 61.2662 8.89048 63.5279 9.7424 64.3041M57.6752 57.7276C57.4562 57.5474 54.7596 56.2567 54.6002 56.2367C52.1102 56.077 54.1719 58.5907 55.0983 59.255C56.051 59.9181 57.3809 60.1299 58.4311 60.5986C59.3745 59.7961 58.4135 58.3189 57.6752 57.7276ZM10.8565 56.3267C10.4519 56.7521 13.2323 58.7721 13.7367 58.8309C14.4544 58.9344 20.4327 57.2544 20.3879 56.822C17.6694 55.0165 13.8967 55.7559 10.8554 56.2996M23.4885 53.9408C23.2064 53.5191 20.2107 52.6491 19.5755 52.6233C17.7229 52.5435 16.4561 52.5732 14.5221 52.4429C13.7804 52.3947 10.5155 53.2742 10.4102 53.9034C10.3805 54.4477 10.7359 54.7304 11.2644 54.7338C12.7685 54.6935 14.7654 53.8165 16.4552 53.795C18.5417 53.7828 20.8118 54.984 23.0863 55.0448C23.6686 55.073 23.695 55.0718 23.6158 54.4509C23.7121 54.2294 23.602 54.1258 23.516 53.9668M66.6311 51.5159C67.0171 50.0325 65.8968 48.5353 65.7889 47.237C65.6993 46.3723 66.066 45.6771 65.9742 44.7582C65.4277 39.9774 62.806 41.0724 59.5103 42.4692L54.9843 42.8895C57.4681 46.6331 61.2448 49.0971 62.0619 54.0286C60.5016 53.99 60.3614 51.933 59.5197 50.7762C58.2022 48.9893 53.1949 43.6757 51.3193 43.054C50.8366 42.8856 50.3849 42.8244 49.8599 42.9023C49.5813 43.1863 51.4138 45.9004 51.626 46.5424C52.2671 48.5769 51.3011 50.7107 52.5212 52.6921C53.4569 54.1976 56.3793 55.2067 57.9477 56.0593C58.7056 56.4868 60.0586 57.865 60.5859 57.8413C61.7197 57.7904 61.8272 55.9667 62.32 55.1301C63.4523 53.1789 64.4082 52.05 66.6826 51.4864M13.3871 38.1593C11.46 38.1915 9.45207 41.9195 12.2504 41.251L13.3871 38.1593ZM36.3876 38.5659C36.8896 37.3217 33.3534 33.6796 31.9931 36.4827C31.7742 36.9269 30.8668 40.4426 30.7867 41.0435C30.3059 45.2731 31.9433 47.1272 34.9014 49.6007C36.3506 50.1329 34.9583 46.5846 34.9491 46.3678C34.7974 44.6643 34.7373 41.382 35.2529 39.8385C35.5566 38.9018 36.3384 38.6496 36.3613 38.5671M39.6152 34.3216L38.702 30.236L39.4544 39.2427C40.0048 39.761 40.1125 39.186 40.1697 38.6677C40.252 37.4966 39.9308 36.1536 40.012 34.9554L40.7399 34.6784L39.6428 34.3475L39.6152 34.3216ZM38.7322 39.6552C38.257 35.93 37.5398 31.4827 35.8654 28.1371C35.6361 27.713 35.4526 27.124 34.8943 27.0405C35.5161 29.8632 36.452 32.6175 37.0475 35.4414C37.2827 36.6253 36.7854 37.9779 37.9537 38.74C36.7879 39.281 36.6952 40.2082 36.6151 41.4335C36.2687 46.9602 39.1667 52.9928 38.4018 58.6198L37.3655 59.1007C37.3862 59.5884 39.509 64.1627 39.8438 64.5821C41.159 66.3148 44.74 63.5479 45.5216 62.0468C46.349 60.3807 46.2111 58.3779 46.721 56.6989C47.7442 53.4223 51.0615 50.6672 50.4223 46.8136C50.3488 46.3282 47.5095 41.6775 47.0383 41.1557C46.5383 40.5809 45.8011 40.0167 44.986 40.1076C46.6763 43.2081 47.4257 47.7897 47.0468 51.3089C47.0079 51.6364 46.3492 54.7881 45.6016 53.98L44.4839 40.1029L38.7827 39.5987L38.7322 39.6552ZM72.4184 25.4378C71.5103 24.5826 69.832 24.8752 68.8151 24.5679C67.7179 24.237 66.8075 23.3277 65.7069 22.9156C63.023 21.9229 58.4694 21.6929 55.8202 22.762C55.4052 22.9435 49.0112 27.2756 48.4771 27.7611C46.901 29.2165 44.8803 32.022 44.3086 34.111C45.5343 34.979 50.5697 30.3821 51.935 29.5607C57.8843 25.9544 63.8573 27.2609 70.0941 29.18C69.3618 30.5975 66.6079 29.2008 65.0969 29.0785C59.3429 28.5766 53.9216 29.0643 49.785 33.6751C51.3797 33.9022 53.1037 32.8203 54.7304 32.5573C56.0419 32.3355 57.397 32.519 58.7096 32.3244C62.5695 31.7711 66.0051 30.5581 69.8791 32.2032C69.9055 32.8264 70.1245 33.0066 69.3828 32.9585C68.2169 32.875 66.9535 32.3616 65.6913 32.4997C62.6935 32.8243 57.5049 33.8173 54.4407 34.4435C53.2095 34.6888 46.8243 36.7401 47.9538 38.454C48.1522 38.7709 54.0509 41.4382 54.7147 41.517C63.1284 42.4426 63.6614 35.0885 70.5342 35.1873C72.6493 35.2281 74.5687 36.8795 74.3124 33.3345C74.2343 32.1163 73.0238 26.0079 72.3909 25.4119M40.5375 30.5337L42.7602 22.5337C41.3423 23.9819 40.7821 26.3418 40.442 28.2847L39.3448 27.9538L39.4081 29.4442L40.0878 28.6535C40.1383 29.2213 39.8136 34.6385 40.6802 33.8937L41.6127 29.7253L40.5638 30.5325L40.5375 30.5337ZM32.5302 26.1149C30.4306 23.3314 23.1244 22.3562 19.8675 22.801C13.9854 23.6351 9.00771 30.8357 10.3959 36.7732C10.7765 37.0277 13.6743 34.97 13.8233 34.7462C14.1419 34.1617 13.3714 33.4362 13.8838 33.0602C17.3113 31.6576 20.7484 32.3449 24.1729 33.3586L27.5563 35.2701L17.6316 34.2223C17.1388 35.0589 21.0953 36.7817 21.6835 36.9454C23.2071 37.3657 28.3145 38.1952 29.5893 37.7308C30.8652 37.2934 32.0602 33.0861 34.8048 33.6416L35.1028 33.1939C35.3789 32.2313 33.2044 27.062 32.505 26.1432M33.8049 18.809C33.4747 18.4981 29.7698 20.2118 30.5884 20.8266C31.6626 20.6155 32.3321 20.8298 33.1783 21.4706L33.8049 18.809ZM42.4323 15.4355C41.7547 15.0315 41.8316 15.5982 41.6608 15.9316C40.9984 17.1288 41.0077 17.9699 41.5364 19.2222C43.0268 19.4811 43.5286 17.6125 43.2395 16.4037C43.2372 16.3496 42.5137 15.4861 42.4587 15.4343M45.2732 15.7695C45.0817 15.6152 43.9409 14.8791 43.9168 14.9345C44.2725 16.466 44.5546 17.5121 44.0917 19.0532C44.9262 18.1742 45.1301 17.3777 46.5849 17.421C46.6606 17.3362 45.4635 15.8967 45.2984 15.7412M27.8215 9.79275C27.3044 9.43587 23.2239 7.28423 22.8525 7.2466C19.3559 7.02345 21.8647 10.1144 22.124 11.243C22.4785 12.7474 22.3218 14.6548 22.8162 16.343C23.6191 19.0761 25.9777 21.7394 28.9332 21.6611L30.4033 17.7129C29.4058 16.6174 28.6271 15.0777 27.735 13.9775C26.593 12.5899 24.2965 11.3898 24.24 9.43766C24.8452 8.75894 27.8573 11.8816 28.4089 12.4269C29.4592 13.5201 31.6344 16.8432 32.4496 17.3767C33.047 17.7571 34.253 17.5401 34.0855 16.706C33.8537 15.6033 28.9107 10.5583 27.8203 9.76565M38.6431 7.08087C36.7709 5.91607 35.4022 6.65621 33.538 6.3055C31.0881 5.84533 29.6811 3.81803 26.6135 4.98736C23.4416 6.18852 27.734 7.73338 28.579 8.34702C31.6609 10.6249 33.9783 13.5616 36.2247 16.6914C37.1225 17.9271 37.4118 20.3847 39.3992 17.4177C41.1883 14.7583 41.6562 8.98179 38.6443 7.10797M49.9601 25.3598C52.4888 23.3188 55.5484 22.5842 56.9603 19.1272C58.7548 14.7301 58.278 8.48012 55.9891 4.34767C53.816 0.45435 49.535 6.02191 47.6025 7.79186C45.7719 9.47579 42.8408 10.7476 43.1302 13.8295C44.5906 13.3839 45.9632 15.2227 46.8162 15.4016C48.9463 15.7947 51.5852 8.26468 52.713 6.82948C53.1394 6.29452 53.739 6.10472 53.7941 6.78096C53.8114 7.18742 52.253 11.5468 51.9115 12.2137C50.8903 14.2957 48.8798 16.0963 48.1316 18.3832L48.0996 18.8733C52.4515 19.954 48.3695 22.1191 47.0147 23.8088C44.3797 27.0763 42.3214 30.8609 41.8429 35.1447C42.5905 35.9527 42.3931 35.0385 42.5914 34.731C44.6899 31.2704 46.8423 27.8345 49.9842 25.3044M58.7696 20.6749C61.2435 20.4553 64.0178 20.4665 66.3819 21.3921C67.4298 21.8066 68.3459 22.8514 69.0946 23.0622C71.8472 23.8074 73.4393 22.107 74.7228 26.2031C75.1816 27.6757 76.0826 33.9609 76.1253 35.5879C76.1879 39.5488 72.2151 36.8222 69.8122 36.8486C67.9906 36.8761 65.5179 37.7472 65.1583 39.8538C65.014 40.8105 66.6297 43.3985 66.9773 44.7403C67.2606 45.8136 67.0934 46.8527 67.3733 47.8447C67.7163 49.0781 69.5198 50.4903 68.4528 52.1128C67.8075 53.092 65.4333 53.1714 64.3205 54.9589C62.489 57.8645 63.2118 61.1985 58.9265 61.6895C54.4579 62.2158 54.0447 59.3294 50.329 58.3017C49.5791 57.4394 54.1825 53.8664 50.1746 53.4219C49.8364 53.5456 48.0085 57.157 47.8492 57.7614C47.2752 59.7962 47.764 61.9733 46.3634 63.8279C45.6883 64.727 40.7133 67.638 39.7366 67.6547C37.8347 67.6586 38.1082 64.7686 37.6311 63.4868C37.2136 62.3653 35.8617 61.0143 35.1817 59.9317C34.699 59.1389 34.8501 57.7204 33.6693 57.9091C32.9543 60.3575 31.1307 62.204 29.8975 64.2683C29.5766 64.7985 29.6363 65.5832 29.2661 66.197C28.4536 67.5909 24.1416 72.4269 26.03 73.9711C26.3854 74.2537 28.1394 74.5008 28.8698 74.9024C33.2575 77.4475 37.7884 85.8502 35.885 90.7953C34.4331 94.5527 32.9124 91.0916 30.9083 89.9327C28.9305 88.7726 25.9292 88.3915 23.972 87.0948C22.2052 85.9252 18.0543 80.2474 17.5211 80.1356C15.7338 79.7271 10.8259 86.083 8.8757 84.9488C8.72775 84.5754 8.47203 84.1525 8.50865 83.7708C8.66319 82.4336 15.5156 77.0764 16.8726 75.4408C17.4755 74.7079 17.9993 73.9785 17.849 72.9265C14.059 73.2595 10.9299 69.8706 7.03565 70.8598C6.06812 71.0933 3.83757 73.311 2.96724 72.1012C2.37628 68.7613 5.05362 64.6232 7.58687 62.6905C8.3285 62.1143 11.6976 60.5785 11.8202 60.3558C13.0763 58.209 5.93986 58.122 5.47895 57.8441C4.20516 57.0868 7.95215 53.2535 8.74422 52.6207C9.53629 51.9879 11.7074 50.8588 12.6807 50.7608C13.8374 50.6275 19.0513 50.855 20.3789 51.0126C21.4932 51.1255 24.7253 53.2066 25.2689 54.1867C25.7253 54.9807 27.127 59.9946 27.792 60.1005C30.2408 60.5335 30.3799 55.722 30.2328 54.1268C29.9033 50.7209 29.2021 46.6529 29.0055 43.2682C28.9514 41.9946 29.7365 40.5748 29.0748 39.3013C27.0581 38.4688 25.1323 39.1525 22.8955 38.7371C21.0589 38.4123 17.0909 36.4185 15.8058 36.639C13.9945 36.9104 13.7086 41.3756 12.5819 42.8379L11.6694 43.1232C9.08764 42.6689 8.48999 33.5738 8.84961 31.4672C9.65937 26.8971 15.8801 21.5954 20.32 21.016C21.134 20.898 22.6222 21.7272 22.9166 20.5737C23.258 19.2824 21.3501 17.902 21.0416 16.857C20.5782 15.2761 20.7452 12.9881 20.1911 11.1397C19.7645 9.80142 17.6512 7.31715 18.3034 6.50057C18.779 5.88195 25.5851 4.4091 26.8345 3.34852C30.3997 2.69984 31.8054 4.07562 34.7519 5.02933C36.1173 5.45672 37.2889 5.05121 38.808 5.98753C40.49 7.02513 40.9409 8.93245 41.8021 10.5499C43.1617 10.2174 43.5237 8.78938 44.5909 7.79128C45.9893 6.50683 50.7737 2.21981 52.0633 1.48321C53.0697 0.92222 54.0144 0.77123 55.1379 1.10089C57.2497 1.68482 59.2042 7.89558 59.4786 10.0009C59.9686 13.4539 59.0212 17.2701 58.8773 20.7244" fill="#226244"/>
<path d="M30.923 28.7095C26.2959 27.9941 21.1623 27.7901 16.6663 29.5394C15.5223 29.9708 14.0987 31.2835 13.1082 31.5995C12.4559 31.7917 12.4559 31.7916 11.9835 31.2427C14.9463 26.9832 22.4494 25.7505 27.1705 26.8146C28.2905 27.063 30.3508 27.6764 30.923 28.7095Z" fill="#226244"/>
<path d="M41.1546 62.485C41.3359 56.8028 42.8094 52.3115 41.4064 46.6461C41.0852 45.303 39.6804 42.7055 39.5966 41.9763C39.522 41.4638 39.9507 40.983 40.4035 41.0713C40.8289 41.1337 42.3747 43.942 42.5846 44.5299C44.727 50.1892 43.7203 55.7185 41.9213 61.2561C41.7563 61.725 41.7576 62.3765 41.1546 62.485Z" fill="#226244"/>
</svg>
