<svg width="292" height="125" viewBox="0 0 292 125" fill="none" xmlns="http://www.w3.org/2000/svg">
<path d="M83.9655 6.86402H85.1535C86.2755 6.86402 87.7059 6.68802 88.6101 5.78602C89.3598 5.06002 89.7813 3.60803 89.784 2.48603C89.7884 0.682036 88.4467 0.550037 87.3687 0.550037C86.0927 0.550037 85.5645 0.638035 85.1647 2.20003L83.9655 6.86402ZM81.3186 0.572036L81.4075 0.198037H87.2595C91.6815 0.198037 91.6743 3.19003 91.674 3.32203C91.672 4.15803 91.2046 6.40202 86.4949 7.12802C88.2312 7.83202 88.7568 8.82201 88.7539 10.032C88.7516 10.978 88.2195 12.672 88.2405 13.112C88.2395 13.508 88.4583 14.014 89.0083 14.014C89.2503 14.014 89.6687 13.86 89.9995 13.53C90.8154 12.716 91.0816 11.814 91.3477 10.956H91.6777C91.3006 12.254 90.6352 14.476 88.4132 14.476C87.2472 14.476 86.435 13.75 86.4378 12.584C86.4407 11.374 87.1482 9.92201 87.1504 8.99801C87.1533 7.78802 86.3187 7.21602 85.2847 7.21602H83.8767L82.522 12.474C82.4333 12.782 82.3887 13.024 82.3882 13.222C82.3869 13.772 82.7825 13.948 84.0365 13.948H84.4985L84.4316 14.3H78.6896L78.6904 13.97C79.9444 13.97 80.495 13.728 80.7837 12.628L83.4044 2.31003C83.5154 1.91403 83.6262 1.58403 83.6269 1.29803C83.628 0.836035 83.3206 0.572036 82.1766 0.572036H81.3186ZM92.5744 8.71201H92.2004C92.6892 6.71002 93.7712 5.03802 94.7832 5.03802C95.3552 5.03802 96.0139 5.58802 96.0102 7.15002C96.0052 9.21801 94.4368 11.858 94.4337 13.178C94.4324 13.728 94.6075 14.08 95.0475 14.08C95.4215 14.08 95.7302 13.772 96.083 13.442C97.2739 12.254 98.557 9.30601 99.887 5.14802H101.185L99.5634 11.638C99.4745 12.012 99.2518 13.112 99.2513 13.332C99.2505 13.684 99.3816 14.058 99.6896 14.058C100.218 14.058 101.21 12.914 101.7 10.45H102.03C101.806 12.122 100.811 14.454 99.5566 14.454C99.0726 14.454 98.4361 13.838 98.4407 11.924C98.4434 10.802 98.7538 9.79001 98.7766 9.46001C97.9804 11.22 97.2947 12.738 96.2141 13.816C95.9054 14.124 95.4426 14.454 95.0686 14.454C94.5626 14.454 93.5078 13.97 93.5128 11.88C93.5173 9.98801 95.1297 7.34802 95.1328 6.05002C95.1337 5.67602 95.0023 5.43402 94.7163 5.43402C94.3203 5.43402 93.2847 6.07202 92.5744 8.71201ZM103.101 9.10801H102.771C103.284 5.94002 104.563 4.95002 105.179 4.95002C105.751 4.97202 106.387 5.67602 106.383 7.45802C106.381 8.11801 106.247 9.17401 105.98 10.164C106.599 8.88801 107.286 6.93002 108.631 5.58802C109.072 5.14802 109.403 4.97202 109.799 4.97202C110.547 4.97202 111.315 5.87402 111.311 7.37002C111.306 9.46001 109.65 12.012 109.647 13.31C109.646 13.794 109.799 13.992 110.085 13.992C110.723 13.992 111.606 12.892 112.271 10.714H112.557C112.09 12.716 111.074 14.388 109.996 14.388C109.446 14.388 108.766 13.75 108.769 12.364C108.774 10.362 110.365 7.45802 110.368 6.11602C110.369 5.67602 110.194 5.32402 109.754 5.32402C109.446 5.32402 109.093 5.58802 108.851 5.83002C107.285 7.39202 105.69 11.858 105.358 12.892L104.892 14.3H103.638L105.104 8.40401C105.304 7.61202 105.571 6.53402 105.572 5.98402C105.573 5.56602 105.398 5.34602 105.134 5.34602C104.87 5.34602 104.627 5.61002 104.495 5.74202C103.723 6.49002 103.39 7.89802 103.101 9.10801ZM113.628 9.10801H113.298C113.812 5.94002 115.09 4.95002 115.706 4.95002C116.278 4.97202 116.914 5.67602 116.91 7.45802C116.909 8.11801 116.774 9.17401 116.508 10.164C117.127 8.88801 117.813 6.93002 119.159 5.58802C119.6 5.14802 119.93 4.97202 120.326 4.97202C121.074 4.97202 121.842 5.87402 121.838 7.37002C121.833 9.46001 120.177 12.012 120.174 13.31C120.173 13.794 120.326 13.992 120.612 13.992C121.25 13.992 122.133 12.892 122.798 10.714H123.084C122.617 12.716 121.601 14.388 120.523 14.388C119.973 14.388 119.293 13.75 119.296 12.364C119.301 10.362 120.892 7.45802 120.895 6.11602C120.896 5.67602 120.721 5.32402 120.281 5.32402C119.973 5.32402 119.621 5.58802 119.378 5.83002C117.812 7.39202 116.218 11.858 115.885 12.892L115.42 14.3H114.166L115.632 8.40401C115.832 7.61202 116.098 6.53402 116.1 5.98402C116.101 5.56602 115.925 5.34602 115.661 5.34602C115.397 5.34602 115.155 5.61002 115.022 5.74202C114.25 6.49002 113.917 7.89802 113.628 9.10801ZM128.621 0.0220371C129.127 0.0220371 129.368 0.418036 129.367 0.836035C129.366 1.36403 128.947 1.76003 128.485 1.76003C128.045 1.76003 127.738 1.40803 127.739 0.968035C127.74 0.528036 128.071 0.0220371 128.621 0.0220371ZM124.443 8.60201H124.091C124.623 6.66602 125.595 5.03802 126.673 5.03802C127.465 5.03802 127.925 5.89602 127.922 7.08402C127.917 9.32801 126.195 11.946 126.191 13.288C126.19 13.684 126.256 14.036 126.608 14.036C127.246 14.036 128.525 12.474 129.037 10.318H129.411C128.766 12.848 127.487 14.454 126.519 14.454C125.595 14.454 125.245 13.354 125.248 12.386C125.249 11.88 125.339 11.154 125.693 10.186L126.689 7.50202C126.8 7.21602 127.066 6.33602 127.067 5.96202C127.068 5.61002 126.848 5.41202 126.584 5.41202C125.968 5.41202 125.02 6.57802 124.443 8.60201ZM130.579 9.10801H130.249C130.763 5.94002 132.041 4.95002 132.657 4.95002C133.229 4.97202 133.866 5.67602 133.861 7.45802C133.86 8.11801 133.725 9.17401 133.459 10.164C134.078 8.88801 134.765 6.93002 136.11 5.58802C136.551 5.14802 136.881 4.97202 137.277 4.97202C138.025 4.97202 138.793 5.87402 138.789 7.37002C138.784 9.46001 137.128 12.012 137.125 13.31C137.124 13.794 137.278 13.992 137.564 13.992C138.202 13.992 139.084 12.892 139.749 10.714H140.035C139.569 12.716 138.553 14.388 137.475 14.388C136.925 14.388 136.244 13.75 136.247 12.364C136.252 10.362 137.843 7.45802 137.846 6.11602C137.848 5.67602 137.672 5.32402 137.232 5.32402C136.924 5.32402 136.572 5.58802 136.329 5.83002C134.763 7.39202 133.169 11.858 132.836 12.892L132.371 14.3H131.117L132.583 8.40401C132.783 7.61202 133.049 6.53402 133.051 5.98402C133.052 5.56602 132.876 5.34602 132.612 5.34602C132.348 5.34602 132.106 5.61002 131.973 5.74202C131.202 6.49002 130.868 7.89802 130.579 9.10801ZM145.274 5.39002C144.878 5.39002 144.569 5.61002 144.371 5.80802C143.334 6.86402 142.266 11.748 142.264 12.782C142.261 13.904 142.899 14.058 143.251 14.058C144.593 14.058 146.493 10.736 146.5 7.59002C146.504 5.89602 145.956 5.39002 145.274 5.39002ZM144.718 17.028L145.852 11.902C145.255 13.046 144.35 14.432 143.162 14.432C141.952 14.432 141.163 13.156 141.167 11.396C141.176 7.87602 143.888 5.01602 145.296 5.01602C146.462 5.01602 146.833 6.31402 146.832 6.99602L146.83 7.65602L147.43 5.12602H148.662L146.461 14.652C146.106 16.17 145.372 19.228 142.732 19.228C141.83 19.228 140.886 18.722 140.888 17.622C140.889 17.138 141.133 16.478 141.727 16.478C142.167 16.478 142.43 16.83 142.429 17.248C142.427 18.018 141.701 17.996 141.7 18.37C141.7 18.612 142.095 18.876 142.733 18.876C143.745 18.876 144.473 18.128 144.718 17.028ZM161.378 0.352037C160.234 0.352037 159.418 0.990035 159.043 1.36403C157.213 3.19003 155.747 9.02001 155.741 11.55C155.737 13.068 156.416 14.278 158.154 14.278C159.122 14.278 159.981 13.772 160.445 13.31C162.407 11.352 163.808 5.39002 163.813 3.19003C163.818 1.21003 162.808 0.352037 161.378 0.352037ZM161.379 3.74556e-05C163.887 3.74556e-05 165.42 2.50803 165.414 5.32402C165.403 9.94401 161.541 14.63 158.065 14.63C155.557 14.63 154.133 12.078 154.14 9.19601C154.151 4.59802 158.057 3.74556e-05 161.379 3.74556e-05ZM166.576 9.02001H166.246C166.558 7.37002 167.576 5.01602 168.478 5.01602C169.27 5.01602 169.509 6.13802 169.507 7.10602C169.505 7.87602 169.282 9.13001 169.148 9.81201C169.59 8.97601 170.323 6.27002 171.227 5.34602C171.381 5.19202 171.624 5.03802 171.932 5.03802C172.438 5.03802 172.833 5.45602 172.831 6.11602C172.829 6.88602 172.432 7.34802 172.058 7.34802C171.706 7.34802 171.487 7.01802 171.488 6.68802C171.489 6.05002 172.018 5.74202 172.018 5.58802C172.019 5.45602 171.953 5.41202 171.843 5.41202C171.733 5.41202 171.579 5.47802 171.446 5.61002C170.697 6.35802 168.991 11.22 168.059 14.3H166.805L168.538 7.43602C168.693 6.86402 168.76 6.42402 168.761 6.09402C168.762 5.63202 168.631 5.43402 168.411 5.43402C168.367 5.43402 168.169 5.52202 168.102 5.58802C167.22 6.49002 166.731 8.58001 166.576 9.02001ZM177.827 5.41202C177.541 5.41202 177.343 5.52202 177.056 5.80802C176.13 6.73202 174.644 11.704 174.641 13.068C174.639 13.64 174.858 14.124 175.474 14.124C176.904 14.124 178.916 9.98801 178.922 7.56802C178.925 6.42402 178.641 5.41202 177.827 5.41202ZM178.389 0.220037H179.071C180.127 0.220037 181.36 0.176037 182.328 0.0880374L179.483 12.232C179.327 12.826 179.238 13.288 179.237 13.618C179.237 13.926 179.324 14.102 179.588 14.102C180.204 14.102 181.22 12.65 181.664 10.626L181.995 10.604C181.615 12.782 180.445 14.454 179.565 14.454C179.015 14.454 178.401 13.926 178.404 12.452C178.405 11.99 178.495 11.33 178.607 10.604C177.832 12.694 176.595 14.476 175.451 14.476C174.285 14.476 173.651 12.936 173.655 11.44C173.661 8.55801 176.112 5.06002 177.828 5.06002C178.686 5.06002 179.234 5.80802 179.296 7.48002L180.541 2.24403C180.652 1.84803 180.718 1.51803 180.719 1.25403C180.721 0.594036 179.973 0.550037 178.983 0.550037H178.301L178.389 0.220037ZM184.801 9.79001H185.351C185.681 9.79001 186.825 9.57001 187.465 8.93201C187.972 8.42601 188.591 7.21602 188.593 6.44602C188.594 5.87402 188.244 5.34602 187.606 5.34602C186.154 5.34602 185.489 7.48002 184.801 9.79001ZM188.823 11.308H189.219C188.423 13.266 186.946 14.41 185.648 14.41C183.888 14.41 183.211 12.386 183.214 11.11C183.221 7.92002 185.978 4.99402 187.606 4.99402C188.508 4.99402 189.387 5.69802 189.384 6.90802C189.38 8.42601 187.858 10.164 185.064 10.164H184.712C184.578 10.846 184.357 11.638 184.355 12.474C184.352 13.464 184.813 14.036 185.693 14.036C186.617 14.036 187.983 13.2 188.823 11.308ZM191.305 9.02001H190.975C191.287 7.37002 192.304 5.01602 193.206 5.01602C193.998 5.01602 194.238 6.13802 194.235 7.10602C194.233 7.87602 194.01 9.13001 193.877 9.81201C194.319 8.97601 195.051 6.27002 195.956 5.34602C196.11 5.19202 196.352 5.03802 196.66 5.03802C197.166 5.03802 197.561 5.45602 197.56 6.11602C197.558 6.88602 197.161 7.34802 196.787 7.34802C196.435 7.34802 196.215 7.01802 196.216 6.68802C196.218 6.05002 196.747 5.74202 196.747 5.58802C196.747 5.45602 196.681 5.41202 196.571 5.41202C196.461 5.41202 196.307 5.47802 196.175 5.61002C195.425 6.35802 193.719 11.22 192.788 14.3H191.534L193.266 7.43602C193.422 6.86402 193.489 6.42402 193.49 6.09402C193.491 5.63202 193.359 5.43402 193.139 5.43402C193.095 5.43402 192.897 5.52202 192.831 5.58802C191.949 6.49002 191.46 8.58001 191.305 9.02001ZM209.997 0.352037C208.853 0.352037 208.037 0.990035 207.662 1.36403C205.832 3.19003 204.366 9.02001 204.36 11.55C204.356 13.068 205.035 14.278 206.773 14.278C207.741 14.278 208.601 13.772 209.064 13.31C211.026 11.352 212.427 5.39002 212.432 3.19003C212.437 1.21003 211.427 0.352037 209.997 0.352037ZM209.998 3.74556e-05C212.506 3.74556e-05 214.04 2.50803 214.033 5.32402C214.022 9.94401 210.16 14.63 206.684 14.63C204.176 14.63 202.753 12.078 202.76 9.19601C202.771 4.59802 206.676 3.74556e-05 209.998 3.74556e-05ZM217.427 5.14802L217.827 3.14603C218.072 1.87003 218.869 0.0220371 220.343 0.0220371C221.157 0.0220371 221.771 0.792035 221.769 1.62803C221.768 2.20003 221.415 2.61803 220.953 2.61803C220.535 2.61803 220.293 2.31003 220.294 1.95803C220.296 1.12203 221 1.14403 221.001 0.792035C221.002 0.484036 220.65 0.374037 220.408 0.374037C219.902 0.374037 219.527 0.748035 219.327 1.84803L218.681 5.14802H220.419L220.417 5.61002H218.569L215.898 18.678H214.644L217.315 5.61002H215.159L215.271 5.14802H217.427ZM225.237 6.11602L227.099 0.198037H237.263L236.325 6.09402H235.951C236.04 5.54402 236.063 4.95002 236.065 4.37802C236.068 2.97003 235.829 1.65003 235.171 0.990035C234.93 0.726035 234.622 0.550037 234.028 0.550037C233.038 0.550037 232.971 0.880035 232.594 2.37603L229.973 12.606C229.907 12.848 229.862 13.046 229.862 13.222C229.86 13.86 230.388 13.948 231.664 13.948H232.478L232.389 14.3H225.283L225.394 13.948H226.428C227.506 13.948 227.968 13.75 228.324 12.32L230.9 2.26603C231.078 1.58403 231.211 1.16603 231.211 0.924035C231.212 0.638035 231.014 0.572036 230.486 0.572036C228.77 0.572036 227.402 2.22203 225.567 6.11602H225.237ZM239.19 12.936L238.835 14.3H237.559L240.557 2.46403C240.669 2.00203 240.824 1.56203 240.824 1.36403C240.826 0.594036 240.254 0.550037 238.846 0.550037H238.538L238.627 0.220037H239.551C240.233 0.220037 241.817 0.176037 242.455 0.0660377L240.012 9.59201C240.964 7.37002 241.981 5.06002 243.433 5.06002C244.247 5.06002 244.993 5.98402 244.99 7.30402C244.985 9.32801 243.416 12.188 243.391 13.442C243.39 13.816 243.544 14.058 243.874 14.058C244.578 14.058 245.461 12.452 245.883 10.802H246.257C245.879 12.452 244.907 14.476 243.719 14.476C242.839 14.476 242.445 13.354 242.448 12.254C242.452 10.494 243.976 7.92002 243.98 6.24802C243.982 5.72002 243.696 5.43402 243.366 5.43402C243.036 5.43402 242.728 5.63202 242.397 5.96202C241.206 7.15002 239.39 12.166 239.19 12.936ZM248.91 9.79001H249.46C249.79 9.79001 250.935 9.57001 251.574 8.93201C252.082 8.42601 252.701 7.21602 252.702 6.44602C252.704 5.87402 252.353 5.34602 251.715 5.34602C250.263 5.34602 249.598 7.48002 248.91 9.79001ZM252.933 11.308H253.329C252.532 13.266 251.055 14.41 249.757 14.41C247.997 14.41 247.32 12.386 247.323 11.11C247.331 7.92002 250.088 4.99402 251.716 4.99402C252.618 4.99402 253.496 5.69802 253.493 6.90802C253.49 8.42601 251.967 10.164 249.173 10.164H248.821C248.688 10.846 248.466 11.638 248.464 12.474C248.462 13.464 248.922 14.036 249.802 14.036C250.726 14.036 252.092 13.2 252.933 11.308ZM264.806 2.11203L262.363 11.638C262.274 11.99 262.008 12.848 262.007 13.244C262.006 13.794 262.468 13.97 263.568 13.97C266.582 13.97 268.299 13.552 269.653 8.49201C270.097 6.84202 270.452 5.30202 270.455 4.24603C270.46 2.04603 269.562 0.550037 266.966 0.550037C265.492 0.550037 265.117 0.946034 264.806 2.11203ZM261.224 0.550037L261.313 0.198037H266.923C270.685 0.198037 272.152 3.16803 272.145 5.98402C272.137 9.28401 269.463 14.3 264.337 14.3H258.353L258.354 13.97C259.542 13.97 260.114 13.838 260.469 12.386L263.001 2.48603L263.024 2.33203L263.246 1.40803C263.379 0.880035 262.94 0.550037 262.126 0.550037H261.224ZM277.602 5.39002C277.228 5.39002 276.831 5.72002 276.677 5.87402C275.883 6.66602 274.266 11.396 274.261 13.156C274.261 13.442 274.391 14.102 275.007 14.102C276.569 14.102 278.736 9.72401 278.742 7.23802C278.745 5.91802 278.218 5.39002 277.602 5.39002ZM281.417 10.626H281.725C281.324 13.002 280.066 14.476 279.274 14.476C278.746 14.476 278.022 13.75 278.025 12.276C278.026 11.99 278.138 11.33 278.205 10.89C276.966 13.64 275.864 14.454 275.006 14.454C273.796 14.454 273.272 12.804 273.275 11.55C273.284 8.03001 276.129 5.03802 277.669 5.03802C278.571 5.03802 279.097 5.89602 279.094 7.08402L279.093 7.63402L279.737 5.14802H280.969L279.081 12.43C279.014 12.716 278.903 13.134 278.903 13.464C278.902 13.816 278.989 14.08 279.319 14.08C279.451 14.08 280.64 13.86 281.417 10.626ZM291.517 5.14802L289.896 11.55C289.318 13.838 289.005 16.192 287.373 17.886C286.689 18.59 285.741 19.228 284.729 19.228C283.409 19.228 282.707 18.326 282.709 17.49C282.711 16.962 283.042 16.412 283.614 16.412C284.076 16.412 284.273 16.808 284.272 17.072C284.271 17.886 283.588 17.952 283.587 18.348C283.587 18.612 284.07 18.898 284.664 18.898C286.798 18.898 287.464 16.236 287.864 14.608L289.086 9.72401C288.555 11 287.737 12.87 286.965 13.618C286.546 14.036 285.973 14.454 285.445 14.454C284.609 14.454 283.862 13.75 283.866 12.254C283.871 10.362 285.572 7.15002 285.575 6.02802C285.576 5.65402 285.466 5.41202 285.114 5.41202C284.278 5.41202 283.394 7.21602 283.039 8.71201H282.687C283.087 6.82002 284.191 5.01602 285.181 5.01602C285.731 5.01602 286.456 5.61002 286.453 7.06202C286.447 9.21801 284.724 12.408 284.722 13.288C284.721 13.574 284.874 14.102 285.446 14.102C285.798 14.102 286.216 13.86 286.525 13.552C287.936 12.144 289.132 8.75601 290.241 5.14802H291.517ZM6.07664 22C7.70464 22 8.91178 23.188 8.90877 24.442C8.90512 25.96 7.7589 26.884 5.02678 28.6C7.05147 28.314 8.32244 30.404 8.31843 32.0759C8.31293 34.3639 5.9537 36.5419 3.4677 36.5419C1.8397 36.5419 0.214394 35.4199 0.218781 33.5939C0.22174 32.3619 0.971696 31.5479 1.6757 31.5479C2.2697 31.5479 2.55464 31.9879 2.55353 32.4499C2.55247 32.8899 2.22036 33.7699 1.31836 33.7699C0.790358 33.7699 0.767565 34.0999 0.767036 34.3199C0.765398 35.0019 1.8187 36.1239 3.0287 36.1239C5.6907 36.1239 6.71338 31.6799 6.71623 30.492C6.71845 29.568 6.28009 28.886 5.20209 28.886C4.38809 28.886 3.81429 29.634 3.46229 29.634C3.33029 29.634 3.26451 29.546 3.26482 29.414C3.26572 29.04 4.67467 28.644 5.64495 27.698C6.57117 26.774 7.10271 25.3 7.10577 24.024C7.10879 22.77 6.42768 22.396 5.74568 22.396C5.08568 22.396 3.65463 22.836 3.65304 23.496C3.65225 23.826 4.35635 23.782 4.35477 24.442C4.35287 25.234 3.66965 25.74 3.20765 25.74C2.81165 25.74 2.39423 25.498 2.39613 24.706C2.39878 23.606 3.96464 22 6.07664 22ZM16.7222 27.39C14.9622 27.39 13.324 31.6359 13.318 34.1219C13.3156 35.1119 13.5552 36.1239 14.5012 36.1239C16.9432 36.1239 17.7734 29.392 17.7746 28.864C17.7766 28.05 17.4922 27.39 16.7222 27.39ZM9.80577 30.8879H9.45377C10.0974 28.556 11.267 27.038 12.323 27.038C13.137 27.038 13.707 27.896 13.704 29.106C13.7024 29.81 13.613 30.382 13.4794 31.0199C14.1217 29.26 15.1611 27.016 16.7671 27.016C17.7571 27.016 18.854 28.292 18.8482 30.712C18.8433 32.7579 17.7836 34.2759 16.8574 35.1999C15.8871 36.1679 15.1603 36.4759 14.4783 36.4759C13.4443 36.4759 12.9406 35.5519 12.9225 33.9239L11.7011 38.6759C11.6122 39.0279 11.5675 39.3139 11.567 39.5339C11.5654 40.2159 12.0931 40.3039 13.3471 40.3039L13.3462 40.6779H7.93425L8.02314 40.3039H8.37514C9.62914 40.3039 10.1139 39.9739 10.3805 38.9179L12.5794 30.206C12.7348 29.612 12.8904 28.952 12.8917 28.402C12.8932 27.808 12.7841 27.412 12.3001 27.412C11.2001 27.412 10.2049 29.59 9.80577 30.8879ZM20.5528 30.9979H20.2228C20.5361 28.82 21.5746 26.95 22.6306 26.95C23.2026 26.95 23.8168 27.698 23.8125 29.48C23.8116 29.854 23.6986 31.0859 23.4329 31.8119C24.0519 30.558 24.7825 28.644 25.7969 27.632C26.26 27.17 26.7005 26.972 27.0745 26.972C28.0425 26.972 28.2816 28.182 28.279 29.282C28.2769 30.14 28.1208 31.0199 27.8989 31.7899C28.4734 30.7779 29.2483 28.71 30.4832 27.5C30.7479 27.236 31.1665 26.972 31.5845 26.972C32.4865 26.972 33.0555 28.226 33.0533 29.128C33.0477 31.4819 31.2813 34.1219 31.2783 35.3979C31.2774 35.7719 31.4308 35.9919 31.7608 35.9919C32.5748 35.9919 33.6358 33.9459 33.8582 32.9119H34.2102C33.9204 34.4959 32.7058 36.4099 31.6498 36.4099C30.7698 36.4099 30.4645 35.3099 30.4669 34.2979C30.4723 32.0539 32.1947 29.392 32.1977 28.138C32.199 27.61 31.8696 27.346 31.5396 27.346C29.9556 27.346 27.4553 33.3079 26.8101 36.2999H25.5341L27.2672 29.194C27.356 28.842 27.4451 28.402 27.446 28.028C27.4469 27.654 27.3376 27.346 26.9636 27.346C25.4236 27.346 23.0779 33.0659 22.3661 36.2999H21.0901L22.712 29.7C22.8675 29.04 23.0009 28.49 23.0021 27.962C23.0031 27.544 22.7836 27.346 22.5196 27.346C21.7276 27.346 20.7329 29.304 20.5528 30.9979ZM89.2652 31.2839H89.6172C89.5859 35.1559 87.1623 36.6519 85.1163 36.6519C82.3443 36.6519 79.6229 33.9239 79.6344 29.128C79.6403 26.664 81.1474 22.044 84.8214 22.044C86.6914 22.044 87.6999 23.496 88.0299 23.496C88.4699 23.496 88.8022 22.528 88.9355 22.022H89.3095L89.4718 27.698H89.0978C88.1603 24.156 86.8225 22.418 84.8865 22.418C81.7405 22.418 81.7097 26.07 81.7015 29.48C81.6903 34.1439 82.1912 36.2999 85.2712 36.2999C87.3172 36.2999 89.2794 34.5179 89.2652 31.2839ZM103.658 36.2999H91.4703L91.4712 35.9259H92.8572C93.8912 35.9259 94.0019 35.6399 94.0035 35.0019L94.0311 23.496C94.0326 22.858 93.9233 22.572 92.8893 22.572H91.5473L91.5482 22.22H103.428L103.815 26.136H103.485C102.259 23.408 101.337 22.572 99.5993 22.572H96.4313C95.9473 22.572 95.7708 22.77 95.7692 23.474L95.7565 28.754H96.8345C98.8585 28.754 99.786 27.28 99.7691 25.146H100.099L100.081 32.5599H99.7293C99.737 29.37 97.6476 29.106 97.0316 29.106H95.7556L95.7408 35.2879C95.7398 35.7059 95.8932 35.9259 96.4872 35.9259H99.2592C100.227 35.9259 101.174 35.4639 101.836 34.8039C102.564 34.0779 103.072 33.0879 103.494 31.6359H103.824L103.658 36.2999ZM112.965 22.594H111.469C110.413 22.594 110.215 22.594 110.212 23.76L110.2 28.622H110.882C114.072 28.622 115.636 27.852 115.642 25.52C115.647 23.386 114.703 22.594 112.965 22.594ZM108.447 35.0239L108.475 23.496C108.476 22.902 108.367 22.572 107.333 22.594H105.903L105.904 22.22H113.362C116.134 22.22 117.692 23.936 117.688 25.52C117.683 27.434 115.898 28.622 112.708 28.842C116.182 29.854 116.508 31.2399 116.679 33.4619C116.763 34.8699 116.894 35.5739 117.642 35.5739C118.258 35.5739 118.59 34.7819 118.592 33.7699L118.595 32.6919H118.947L118.944 33.6599C118.941 35.2219 118.212 36.4099 116.936 36.4099C115.572 36.4099 114.827 35.2219 114.831 33.4619C114.838 30.382 114.028 28.996 111.278 28.996H110.2L110.185 35.0239C110.184 35.6399 110.293 35.9259 111.349 35.9259H112.779L112.778 36.2999H105.826L105.827 35.9259H107.301C108.335 35.9259 108.446 35.6399 108.447 35.0239ZM132.727 36.2999H120.539L120.54 35.9259H121.926C122.96 35.9259 123.07 35.6399 123.072 35.0019L123.099 23.496C123.101 22.858 122.992 22.572 121.958 22.572H120.616L120.617 22.22H132.497L132.883 26.136H132.553C131.328 23.408 130.406 22.572 128.668 22.572H125.5C125.016 22.572 124.839 22.77 124.838 23.474L124.825 28.754H125.903C127.927 28.754 128.854 27.28 128.837 25.146H129.167L129.15 32.5599H128.798C128.805 29.37 126.716 29.106 126.1 29.106H124.824L124.809 35.2879C124.808 35.7059 124.962 35.9259 125.556 35.9259H128.328C129.296 35.9259 130.243 35.4639 130.904 34.8039C131.632 34.0779 132.14 33.0879 132.562 31.6359H132.892L132.727 36.2999ZM145.169 22.22H149.877L149.877 22.572H148.579C147.545 22.572 147.434 22.858 147.432 23.496L147.405 35.0019C147.403 35.6399 147.512 35.9259 148.546 35.9259H149.822L149.822 36.2999H143.398L143.398 35.9259H144.52C145.554 35.9259 145.665 35.6399 145.667 35.0019L145.697 22.572H145.411L141.857 36.4099H141.527L138.173 22.572H137.799L137.772 33.8139C137.768 35.0899 138.778 35.9259 140.274 35.9259L140.274 36.2999H134.752L134.752 35.9259C137.414 35.9259 137.419 34.0559 137.423 32.4939L137.441 24.816C137.444 23.804 137.381 22.572 135.335 22.572H134.873L134.873 22.22H139.845L142.416 32.8899L145.169 22.22ZM157.044 22C160.63 22 162.798 26.224 162.791 29.216C162.783 32.7799 160.287 36.6079 157.097 36.6079C153.401 36.6079 151.344 32.2959 151.351 29.414C151.36 25.542 154.008 22 157.044 22ZM157.088 22.352C153.414 22.352 153.402 26.994 153.396 29.744C153.389 32.6479 153.759 34.3199 154.812 35.3759C155.493 36.0359 156.35 36.2779 157.076 36.2779C157.846 36.2779 158.617 35.9919 159.256 35.3979C160.425 34.2319 160.737 32.4499 160.746 28.996C160.751 26.95 160.762 22.352 157.088 22.352ZM169.716 22.198L175.63 33.1319L175.56 25.498C175.545 22.748 174.093 22.594 172.619 22.594L172.62 22.22H178.296L178.295 22.594C176.601 22.594 175.895 23.496 175.913 25.168L175.996 36.4099H175.468L167.999 22.572H167.955L167.93 32.9119C167.947 35.1119 169.177 35.9259 170.497 35.9259H170.783L170.782 36.2999H164.952L164.953 35.9259H165.349C165.811 35.9259 167.593 35.7059 167.578 33.1319L167.597 25.08C167.58 22.99 166.217 22.594 164.897 22.594L164.898 22.198H169.716ZM187.555 30.184L187.544 35.0019C187.542 35.6399 187.652 35.9259 188.686 35.9259H190.27L190.269 36.2999H182.987L182.988 35.9259H184.638C185.672 35.9259 185.782 35.6399 185.784 35.0019L185.795 30.558L182.115 23.65C181.655 22.792 181.194 22.572 180.446 22.572H179.28L179.281 22.22H186.211L186.21 22.572H185.088C184.45 22.572 183.966 22.66 183.964 23.166C183.964 23.408 184.073 23.738 184.292 24.178L187.314 29.832L189.503 25.388C189.812 24.75 189.924 24.31 189.924 24.024C189.928 22.66 188.476 22.572 187.882 22.572L187.905 22.22H193.317L193.316 22.572H192.898C191.556 22.572 190.761 23.606 189.877 25.41L187.555 30.184ZM6.02378 43.9999C7.65178 43.9999 8.85893 45.1879 8.85591 46.4419C8.85227 47.9599 7.70605 48.8839 4.97392 50.5999C6.99861 50.3139 8.26959 52.4039 8.26557 54.0759C8.26008 56.3639 5.90084 58.5419 3.41484 58.5419C1.78684 58.5419 0.161539 57.4199 0.165926 55.5939C0.168886 54.3619 0.918841 53.5479 1.62284 53.5479C2.21684 53.5479 2.50178 53.9879 2.50067 54.4499C2.49962 54.8899 2.1675 55.7699 1.2655 55.7699C0.737503 55.7699 0.71471 56.0999 0.714182 56.3199C0.712543 57.0019 1.76585 58.1239 2.97585 58.1239C5.63785 58.1239 6.66052 53.6799 6.66338 52.4919C6.6656 51.5679 6.22724 50.8859 5.14924 50.8859C4.33524 50.8859 3.76144 51.6339 3.40944 51.6339C3.27744 51.6339 3.21165 51.5459 3.21197 51.4139C3.21287 51.0399 4.62182 50.6439 5.59209 49.6979C6.51831 48.7739 7.04985 47.2999 7.05292 46.0239C7.05593 44.7699 6.37483 44.3959 5.69283 44.3959C5.03283 44.3959 3.60177 44.8359 3.60019 45.4959C3.59939 45.8259 4.3035 45.7819 4.30191 46.4419C4.30001 47.2339 3.6168 47.7399 3.1548 47.7399C2.7588 47.7399 2.34138 47.4979 2.34328 46.7059C2.34592 45.6059 3.91178 43.9999 6.02378 43.9999ZM11.2846 56.3419C11.8126 56.3419 12.3396 56.7599 12.3379 57.4639C12.3365 58.0579 11.8074 58.5199 11.2574 58.5199C10.6414 58.5199 10.1805 58.0359 10.182 57.4199C10.1835 56.8259 10.6686 56.3419 11.2846 56.3419ZM20.9554 43.9999C22.5834 43.9999 23.7906 45.1879 23.7876 46.4419C23.7839 47.9599 22.6377 48.8839 19.9056 50.5999C21.9303 50.3139 23.2012 52.4039 23.1972 54.0759C23.1917 56.3639 20.8325 58.5419 18.3465 58.5419C16.7185 58.5419 15.0932 57.4199 15.0976 55.5939C15.1005 54.3619 15.8505 53.5479 16.5545 53.5479C17.1485 53.5479 17.4334 53.9879 17.4323 54.4499C17.4313 54.8899 17.0991 55.7699 16.1971 55.7699C15.6691 55.7699 15.6464 56.0999 15.6458 56.3199C15.6442 57.0019 16.6975 58.1239 17.9075 58.1239C20.5695 58.1239 21.5922 53.6799 21.595 52.4919C21.5972 51.5679 21.1589 50.8859 20.0809 50.8859C19.2669 50.8859 18.6931 51.6339 18.3411 51.6339C18.2091 51.6339 18.1433 51.5459 18.1436 51.4139C18.1445 51.0399 19.5535 50.6439 20.5237 49.6979C21.45 48.7739 21.9815 47.2999 21.9846 46.0239C21.9876 44.7699 21.3065 44.3959 20.6245 44.3959C19.9645 44.3959 18.5334 44.8359 18.5318 45.4959C18.531 45.8259 19.2351 45.7819 19.2336 46.4419C19.2317 47.2339 18.5484 47.7399 18.0864 47.7399C17.6904 47.7399 17.273 47.4979 17.2749 46.7059C17.2776 45.6059 18.8434 43.9999 20.9554 43.9999ZM31.0649 52.7559L31.9531 49.3239C32.1309 48.5979 32.4428 46.9479 32.4446 46.1999C32.4477 44.9019 31.7451 44.3299 30.9971 44.3299C29.8311 44.3299 28.815 46.0459 28.3044 47.9379L27.1944 52.1179C26.7283 53.8339 26.3722 55.5279 26.3703 56.3419C26.3675 57.4859 26.8938 58.1899 27.8398 58.1899C28.3238 58.1899 28.6541 58.0799 29.0951 57.6399C29.9992 56.7599 30.6207 54.4719 31.0649 52.7559ZM31.0199 43.9999C32.4499 43.9999 33.7222 45.5619 33.7142 48.8619C33.7033 53.3939 30.457 58.5419 27.839 58.5419C25.749 58.5419 25.1844 55.4619 25.1885 53.7459C25.2012 48.4659 28.8419 43.9999 31.0199 43.9999ZM41.2474 49.3899C39.4874 49.3899 37.8492 53.6359 37.8433 56.1219C37.8409 57.1119 38.0805 58.1239 39.0265 58.1239C41.4685 58.1239 42.2986 51.3919 42.2999 50.8639C42.3019 50.0499 42.0174 49.3899 41.2474 49.3899ZM34.331 52.8879H33.979C34.6226 50.5559 35.7923 49.0379 36.8483 49.0379C37.6623 49.0379 38.2322 49.8959 38.2293 51.1059C38.2276 51.8099 38.1383 52.3819 38.0047 53.0199C38.6469 51.2599 39.6863 49.0159 41.2923 49.0159C42.2823 49.0159 43.3793 50.2919 43.3735 52.7119C43.3685 54.7579 42.3089 56.2759 41.3827 57.1999C40.4124 58.1679 39.6856 58.4759 39.0036 58.4759C37.9696 58.4759 37.4658 57.5519 37.4477 55.9239L36.2263 60.6759C36.1375 61.0279 36.0928 61.3139 36.0923 61.5339C36.0906 62.2159 36.6184 62.3039 37.8724 62.3039L37.8715 62.6779H32.4595L32.5484 62.3039H32.9004C34.1544 62.3039 34.6392 61.9739 34.9057 60.9179L37.1047 52.2059C37.2601 51.6119 37.4157 50.9519 37.417 50.4019C37.4184 49.8079 37.3094 49.4119 36.8254 49.4119C35.7254 49.4119 34.7302 51.5899 34.331 52.8879ZM45.0781 52.9979H44.7481C45.0613 50.8199 46.0998 48.9499 47.1558 48.9499C47.7278 48.9499 48.342 49.6979 48.3378 51.4799C48.3369 51.8539 48.2239 53.0859 47.9582 53.8119C48.5772 52.5579 49.3078 50.6439 50.3222 49.6319C50.7853 49.1699 51.2258 48.9719 51.5998 48.9719C52.5678 48.9719 52.8069 50.1819 52.8042 51.2819C52.8022 52.1399 52.6461 53.0199 52.4242 53.7899C52.9986 52.7779 53.7736 50.7099 55.0085 49.4999C55.2732 49.2359 55.6918 48.9719 56.1098 48.9719C57.0118 48.9719 57.5808 50.2259 57.5786 51.1279C57.573 53.4819 55.8066 56.1219 55.8035 57.3979C55.8026 57.7719 55.9561 57.9919 56.2861 57.9919C57.1001 57.9919 58.161 55.9459 58.3835 54.9119H58.7355C58.4457 56.4959 57.2311 58.4099 56.1751 58.4099C55.2951 58.4099 54.9898 57.3099 54.9922 56.2979C54.9976 54.0539 56.72 51.3919 56.723 50.1379C56.7243 49.6099 56.3949 49.3459 56.0649 49.3459C54.4809 49.3459 51.9806 55.3079 51.3354 58.2999H50.0594L51.7925 51.1939C51.8813 50.8419 51.9704 50.4019 51.9713 50.0279C51.9722 49.6539 51.8629 49.3459 51.4889 49.3459C49.9489 49.3459 47.6031 55.0659 46.8914 58.2999H45.6154L47.2372 51.6999C47.3928 51.0399 47.5261 50.4899 47.5274 49.9619C47.5284 49.5439 47.3089 49.3459 47.0449 49.3459C46.2529 49.3459 45.2582 51.3039 45.0781 52.9979ZM84.3046 45.4299L84.277 56.9359C84.2747 57.8819 84.4726 57.9259 85.0446 57.9259H86.4526C90.3466 57.9259 91.1671 55.2199 91.1769 51.1279C91.1832 48.4879 90.9453 46.8159 89.7601 45.6279C89.2334 45.0999 88.2006 44.5939 86.9906 44.5939H84.9886C84.5706 44.5939 84.3063 44.7259 84.3046 45.4299ZM82.5388 57.0019L82.5664 45.4959C82.568 44.8579 82.4586 44.5939 81.4246 44.5939H79.9946L79.9955 44.2199H86.6615C87.9595 44.2199 89.6531 44.3959 91.3865 46.2879C92.5495 47.5639 93.2493 49.3019 93.2449 51.1279C93.2372 54.3399 90.9617 58.2999 86.6057 58.2999H79.9397L79.9406 57.9259H81.3926C82.4266 57.9259 82.5373 57.6399 82.5388 57.0019ZM102.363 44.5939H100.867C99.8113 44.5939 99.6133 44.5939 99.6105 45.7599L99.5988 50.6219H100.281C103.471 50.6219 105.035 49.8519 105.04 47.5199C105.045 45.3859 104.101 44.5939 102.363 44.5939ZM97.8454 57.0239L97.8731 45.4959C97.8745 44.9019 97.7653 44.5719 96.7313 44.5939H95.3013L95.3022 44.2199H102.76C105.532 44.2199 107.09 45.9359 107.086 47.5199C107.082 49.4339 105.297 50.6219 102.106 50.8419C105.58 51.8539 105.907 53.2399 106.077 55.4619C106.162 56.8699 106.292 57.5739 107.04 57.5739C107.656 57.5739 107.988 56.7819 107.99 55.7699L107.993 54.6919H108.345L108.343 55.6599C108.339 57.2219 107.61 58.4099 106.334 58.4099C104.97 58.4099 104.225 57.2219 104.229 55.4619C104.237 52.3819 103.426 50.9959 100.676 50.9959H99.5979L99.5834 57.0239C99.5819 57.6399 99.6912 57.9259 100.747 57.9259H102.177L102.176 58.2999H95.2243L95.2252 57.9259H96.6992C97.7332 57.9259 97.8439 57.6399 97.8454 57.0239ZM112.514 57.0019L112.542 45.4959C112.543 44.8579 112.434 44.5719 111.4 44.5719H110.102L110.103 44.2199H116.769L116.768 44.5719H115.426C114.392 44.5719 114.281 44.8579 114.28 45.4959L114.252 57.0019C114.251 57.6399 114.36 57.9259 115.394 57.9259H116.692L116.691 58.2999H110.003L110.004 57.9259H111.368C112.402 57.9259 112.513 57.6399 112.514 57.0019ZM123.386 44.1979L129.299 55.1319L129.23 47.4979C129.214 44.7479 127.763 44.5939 126.289 44.5939L126.29 44.2199H131.966L131.965 44.5939C130.271 44.5939 129.565 45.4959 129.583 47.1679L129.666 58.4099H129.138L121.669 44.5719H121.625L121.6 54.9119C121.617 57.1119 122.847 57.9259 124.167 57.9259H124.453L124.452 58.2999H118.622L118.623 57.9259H119.019C119.481 57.9259 121.263 57.7059 121.247 55.1319L121.267 47.0799C121.25 44.9899 119.887 44.5939 118.567 44.5939L118.568 44.1979H123.386ZM138.23 53.5479L138.222 57.0019C138.22 57.6399 138.329 57.9259 139.363 57.9259H140.353L140.353 58.2999H134.083L134.083 57.9259H135.337C136.371 57.9259 136.482 57.6399 136.484 57.0019L136.511 45.4959C136.513 44.8579 136.404 44.5719 135.37 44.5719H134.138L134.138 44.2199H140.408L140.408 44.5719H139.396C138.362 44.5719 138.251 44.8579 138.249 45.4959L138.231 52.9979C140.702 50.2259 144.011 46.4419 144.014 45.3859C144.015 44.8359 143.532 44.5719 142.894 44.5719H142.058L142.058 44.2199H147.382L147.382 44.5719H147.096C146.348 44.5719 145.489 44.9679 144.761 45.6939C144.077 46.3759 143.591 47.1459 143.326 47.4979L141.583 49.6759L145.394 56.8259C145.92 57.7939 146.381 57.9259 147.459 57.9259H148.053L148.053 58.2999H141.893L141.893 57.9259H143.191C143.609 57.9259 143.764 57.8159 143.764 57.5959C143.765 57.3979 143.655 57.1339 143.48 56.8039L140.436 51.0619L138.23 53.5479ZM149.337 52.6459H149.711C150.715 55.9459 151.765 58.2779 154.251 58.2779C155.835 58.2779 157.07 57.0459 157.074 55.5719C157.075 54.8019 156.835 54.0099 156.243 53.4159C154.86 52.0299 152.33 52.1839 150.662 50.5339C150.025 49.8739 149.566 48.9059 149.569 47.6299C149.573 45.8479 150.633 44.0219 152.723 44.0219C154.351 44.0219 155.229 44.9459 155.779 44.9459C156.021 44.9459 156.484 44.6819 156.507 44.1099H156.859L157.068 48.5759H156.716C155.82 46.2219 154.439 44.3519 152.657 44.3519C151.447 44.3519 150.19 45.3199 150.187 46.8599C150.185 47.4539 150.535 48.1799 151.018 48.6639C152.489 50.1379 155.415 50.1159 156.929 51.6559C157.807 52.5139 158.09 53.6579 158.088 54.4499C158.083 56.4959 156.582 58.6299 154.316 58.6299C152.27 58.6299 151.437 57.3099 150.601 57.3099C150.073 57.3099 149.764 57.7719 149.719 58.5199H149.323L149.337 52.6459ZM170.898 44.5939H169.402C168.346 44.5939 168.148 44.5939 168.146 45.7599L168.134 50.6219H168.816C172.006 50.6219 173.57 49.8519 173.575 47.5199C173.581 45.3859 172.636 44.5939 170.898 44.5939ZM166.381 57.0239L166.408 45.4959C166.41 44.9019 166.3 44.5719 165.266 44.5939H163.836L163.837 44.2199H171.295C174.067 44.2199 175.625 45.9359 175.621 47.5199C175.617 49.4339 173.832 50.6219 170.641 50.8419C174.115 51.8539 174.442 53.2399 174.612 55.4619C174.697 56.8699 174.827 57.5739 175.575 57.5739C176.191 57.5739 176.523 56.7819 176.526 55.7699L176.528 54.6919H176.88L176.878 55.6599C176.874 57.2219 176.145 58.4099 174.869 58.4099C173.505 58.4099 172.76 57.2219 172.764 55.4619C172.772 52.3819 171.961 50.9959 169.211 50.9959H168.133L168.119 57.0239C168.117 57.6399 168.226 57.9259 169.282 57.9259H170.712L170.712 58.2999H163.76L163.76 57.9259H165.234C166.268 57.9259 166.379 57.6399 166.381 57.0239ZM190.66 58.2999H178.472L178.473 57.9259H179.859C180.893 57.9259 181.004 57.6399 181.005 57.0019L181.033 45.4959C181.034 44.8579 180.925 44.5719 179.891 44.5719H178.549L178.55 44.2199H190.43L190.817 48.1359H190.487C189.261 45.4079 188.339 44.5719 186.601 44.5719H183.433C182.949 44.5719 182.773 44.7699 182.771 45.4739L182.758 50.7539H183.836C185.86 50.7539 186.788 49.2799 186.771 47.1459H187.101L187.083 54.5599H186.731C186.739 51.3699 184.649 51.1059 184.033 51.1059H182.757L182.743 57.2879C182.742 57.7059 182.895 57.9259 183.489 57.9259H186.261C187.229 57.9259 188.176 57.4639 188.838 56.8039C189.566 56.0779 190.074 55.0879 190.495 53.6359H190.825L190.66 58.2999ZM202.8 53.2839H203.152C203.121 57.1559 200.697 58.6519 198.651 58.6519C195.879 58.6519 193.158 55.9239 193.169 51.1279C193.175 48.6639 194.682 44.0439 198.356 44.0439C200.226 44.0439 201.235 45.4959 201.565 45.4959C202.005 45.4959 202.337 44.5279 202.47 44.0219H202.844L203.007 49.6979H202.633C201.695 46.1559 200.358 44.4179 198.422 44.4179C195.276 44.4179 195.245 48.0699 195.237 51.4799C195.225 56.1439 195.726 58.2999 198.806 58.2999C200.852 58.2999 202.814 56.5179 202.8 53.2839ZM217.193 58.2999H205.005L205.006 57.9259H206.392C207.426 57.9259 207.537 57.6399 207.538 57.0019L207.566 45.4959C207.568 44.8579 207.458 44.5719 206.424 44.5719H205.082L205.083 44.2199H216.963L217.35 48.1359H217.02C215.794 45.4079 214.872 44.5719 213.134 44.5719H209.966C209.482 44.5719 209.306 44.7699 209.304 45.4739L209.292 50.7539H210.37C212.394 50.7539 213.321 49.2799 213.304 47.1459H213.634L213.616 54.5599H213.264C213.272 51.3699 211.183 51.1059 210.567 51.1059H209.291L209.276 57.2879C209.275 57.7059 209.428 57.9259 210.022 57.9259H212.794C213.762 57.9259 214.709 57.4639 215.371 56.8039C216.099 56.0779 216.607 55.0879 217.029 53.6359H217.359L217.193 58.2999ZM225.256 44.5719H223.892C222.968 44.5719 222.77 44.7039 222.769 45.2539L222.755 51.1499H224.713C227.045 51.1499 227.817 49.9399 227.823 47.6959C227.828 45.6719 226.95 44.5719 225.256 44.5719ZM222.754 51.5239L222.74 57.0019C222.739 57.6399 222.848 57.9259 223.882 57.9259H225.158L225.157 58.2999H218.689L218.69 57.9259H219.856C220.89 57.9259 221.001 57.6399 221.002 57.0019L221.03 45.4959C221.032 44.8799 220.944 44.5719 219.888 44.5719H218.678L218.679 44.2199H225.411C227.611 44.2199 229.874 45.5399 229.869 47.7839C229.863 49.9399 227.924 51.5239 224.602 51.5239H222.754ZM237.756 45.1879L237.728 57.0019C237.726 57.6399 237.836 57.9259 238.892 57.9259H240.08L240.079 58.2999H233.589L233.59 57.9259H234.844C235.878 57.9259 235.988 57.6399 235.99 57.0019L236.019 44.9459C236.02 44.6159 235.822 44.5719 235.382 44.5719C234.15 44.5719 232.454 45.0779 231.763 49.0819H231.389L231.467 44.2199H242.313L242.367 49.1039H241.993C241.538 46.1119 240.354 44.5719 238.616 44.5719C237.868 44.5719 237.758 44.5939 237.756 45.1879ZM246.555 57.0019L246.583 45.4959C246.584 44.8579 246.475 44.5719 245.441 44.5719H244.143L244.144 44.2199H250.81L250.809 44.5719H249.467C248.433 44.5719 248.322 44.8579 248.321 45.4959L248.293 57.0019C248.292 57.6399 248.401 57.9259 249.435 57.9259H250.733L250.732 58.2999H244.044L244.045 57.9259H245.409C246.443 57.9259 246.554 57.6399 246.555 57.0019ZM258.505 43.9999C262.091 43.9999 264.259 48.2239 264.252 51.2159C264.243 54.7799 261.748 58.6079 258.558 58.6079C254.862 58.6079 252.804 54.2959 252.811 51.4139C252.821 47.5419 255.469 43.9999 258.505 43.9999ZM258.548 44.3519C254.874 44.3519 254.863 48.9939 254.857 51.7439C254.85 54.6479 255.22 56.3199 256.273 57.3759C256.954 58.0359 257.811 58.2779 258.537 58.2779C259.307 58.2779 260.078 57.9919 260.717 57.3979C261.886 56.2319 262.198 54.4499 262.206 50.9959C262.211 48.9499 262.222 44.3519 258.548 44.3519ZM271.177 44.1979L277.09 55.1319L277.021 47.4979C277.005 44.7479 275.554 44.5939 274.08 44.5939L274.081 44.2199H279.757L279.756 44.5939C278.062 44.5939 277.356 45.4959 277.374 47.1679L277.457 58.4099H276.929L269.46 44.5719H269.416L269.391 54.9119C269.408 57.1119 270.638 57.9259 271.958 57.9259H272.244L272.243 58.2999H266.413L266.414 57.9259H266.81C267.272 57.9259 269.054 57.7059 269.038 55.1319L269.058 47.0799C269.041 44.9899 267.678 44.5939 266.358 44.5939L266.359 44.1979H271.177ZM5.51703 71.7858C4.94503 71.7858 4.35023 72.1158 3.84302 72.6218C2.51985 73.9418 2.07356 76.5598 2.07012 77.9898C2.06616 79.6398 3.05489 80.1678 3.84689 80.1678C4.41889 80.1678 4.79347 79.9258 5.12421 79.6178C6.2048 78.5398 6.98368 74.8438 6.98669 73.5898C6.98981 72.2918 6.33103 71.7858 5.51703 71.7858ZM7.09293 65.9998C8.21493 65.9998 9.26923 66.7038 9.26564 68.1998C9.26363 69.0358 8.84389 69.7618 8.07389 69.7618C7.56789 69.7618 7.21684 69.3658 7.21827 68.7718C7.22027 67.9358 7.77128 67.5178 8.34328 67.5178C8.47528 67.5178 8.62949 67.4298 8.62986 67.2758C8.63039 67.0558 8.12608 66.3518 7.04808 66.3518C6.36608 66.3518 5.88155 66.5718 5.30818 67.1438C4.27169 68.1778 3.60456 71.1478 3.11617 72.9738C3.97697 71.8078 4.87992 71.4118 5.67192 71.4118C6.96992 71.4118 8.59422 72.9518 8.58804 75.5258C8.58127 78.3418 5.82604 80.5198 3.91204 80.5198C2.06404 80.5198 0.727116 78.4078 0.733828 75.6138C0.742179 72.1378 2.68595 68.9038 4.22965 67.3638C5.20003 66.3738 6.10293 65.9998 7.09293 65.9998ZM16.6165 71.3898C14.8565 71.3898 13.2183 75.6358 13.2123 78.1218C13.2099 79.1118 13.4495 80.1238 14.3955 80.1238C16.8375 80.1238 17.6677 73.3918 17.6689 72.8638C17.6709 72.0498 17.3865 71.3898 16.6165 71.3898ZM9.70006 74.8878H9.34806C9.99166 72.5558 11.1613 71.0378 12.2173 71.0378C13.0313 71.0378 13.6012 71.8958 13.5983 73.1058C13.5966 73.8098 13.5073 74.3818 13.3737 75.0198C14.016 73.2598 15.0554 71.0158 16.6614 71.0158C17.6514 71.0158 18.7483 72.2918 18.7425 74.7118C18.7376 76.7578 17.6779 78.2758 16.7517 79.1998C15.7814 80.1678 15.0546 80.4758 14.3726 80.4758C13.3386 80.4758 12.8349 79.5518 12.8168 77.9238L11.5953 82.6758C11.5065 83.0278 11.4618 83.3138 11.4613 83.5338C11.4596 84.2158 11.9874 84.3038 13.2414 84.3038L13.2405 84.6778H7.82854L7.91743 84.3038H8.26943C9.52343 84.3038 10.0082 83.9738 10.2748 82.9178L12.4737 74.2058C12.6291 73.6118 12.7847 72.9518 12.786 72.4018C12.7875 71.8078 12.6784 71.4118 12.1944 71.4118C11.0944 71.4118 10.0992 73.5898 9.70006 74.8878ZM20.4471 74.9978H20.1171C20.4304 72.8198 21.4689 70.9498 22.5249 70.9498C23.0969 70.9498 23.7111 71.6978 23.7068 73.4798C23.7059 73.8538 23.5929 75.0858 23.3272 75.8118C23.9462 74.5578 24.6768 72.6438 25.6912 71.6318C26.1543 71.1698 26.5948 70.9718 26.9688 70.9718C27.9368 70.9718 28.1759 72.1818 28.1733 73.2818C28.1712 74.1398 28.0151 75.0198 27.7932 75.7898C28.3677 74.7778 29.1426 72.7098 30.3775 71.4998C30.6422 71.2358 31.0608 70.9718 31.4788 70.9718C32.3808 70.9718 32.9498 72.2258 32.9476 73.1278C32.942 75.4818 31.1756 78.1218 31.1726 79.3978C31.1717 79.7718 31.3251 79.9918 31.6551 79.9918C32.4691 79.9918 33.5301 77.9458 33.7525 76.9118H34.1045C33.8147 78.4958 32.6001 80.4098 31.5441 80.4098C30.6641 80.4098 30.3588 79.3098 30.3612 78.2978C30.3666 76.0538 32.089 73.3918 32.092 72.1378C32.0933 71.6098 31.7639 71.3458 31.4339 71.3458C29.8499 71.3458 27.3496 77.3078 26.7044 80.2998H25.4284L27.1615 73.1938C27.2503 72.8418 27.3394 72.4018 27.3403 72.0278C27.3412 71.6538 27.2319 71.3458 26.8579 71.3458C25.3179 71.3458 22.9722 77.0658 22.2604 80.2998H20.9844L22.6063 73.6998C22.7618 73.0398 22.8952 72.4898 22.8964 71.9618C22.8974 71.5438 22.6779 71.3458 22.4139 71.3458C21.6219 71.3458 20.6272 73.3038 20.4471 74.9978ZM83.3924 67.4298L83.3647 78.9358C83.3624 79.8818 83.5603 79.9258 84.1323 79.9258H85.5403C89.4343 79.9258 90.2548 77.2198 90.2647 73.1278C90.271 70.4878 90.033 68.8158 88.8479 67.6278C88.3212 67.0998 87.2884 66.5938 86.0784 66.5938H84.0764C83.6584 66.5938 83.3941 66.7258 83.3924 67.4298ZM81.6266 79.0018L81.6542 67.4958C81.6557 66.8578 81.5464 66.5938 80.5124 66.5938H79.0824L79.0833 66.2198H85.7493C87.0473 66.2198 88.7408 66.3958 90.4743 68.2878C91.6372 69.5638 92.3371 71.3018 92.3327 73.1278C92.325 76.3398 90.0494 80.2998 85.6934 80.2998H79.0274L79.0283 79.9258H80.4803C81.5143 79.9258 81.625 79.6398 81.6266 79.0018ZM96.7132 79.0018L96.7409 67.4958C96.7424 66.8578 96.6331 66.5718 95.5991 66.5718H94.3011L94.3019 66.2198H100.968L100.967 66.5718H99.6251C98.5911 66.5718 98.4804 66.8578 98.4789 67.4958L98.4512 79.0018C98.4497 79.6398 98.559 79.9258 99.593 79.9258H100.891L100.89 80.2998H94.2021L94.203 79.9258H95.567C96.601 79.9258 96.7117 79.6398 96.7132 79.0018ZM107.585 66.1978L113.499 77.1318L113.429 69.4978C113.414 66.7478 111.962 66.5938 110.488 66.5938L110.489 66.2198H116.165L116.164 66.5938C114.47 66.5938 113.764 67.4958 113.782 69.1678L113.865 80.4098H113.337L105.868 66.5718H105.824L105.799 76.9118C105.816 79.1118 107.046 79.9258 108.366 79.9258H108.652L108.651 80.2998H102.821L102.822 79.9258H103.218C103.68 79.9258 105.462 79.7058 105.447 77.1318L105.466 69.0798C105.449 66.9898 104.086 66.5938 102.766 66.5938L102.767 66.1978H107.585ZM122.474 66.1978L128.387 77.1318L128.318 69.4978C128.302 66.7478 126.851 66.5938 125.377 66.5938L125.377 66.2198H131.053L131.053 66.5938C129.359 66.5938 128.652 67.4958 128.67 69.1678L128.753 80.4098H128.225L120.757 66.5718H120.713L120.688 76.9118C120.704 79.1118 121.935 79.9258 123.255 79.9258H123.541L123.54 80.2998H117.71L117.711 79.9258H118.107C118.569 79.9258 120.351 79.7058 120.335 77.1318L120.355 69.0798C120.338 66.9898 118.975 66.5938 117.655 66.5938L117.656 66.1978H122.474ZM144.996 80.2998H132.808L132.809 79.9258H134.195C135.229 79.9258 135.34 79.6398 135.341 79.0018L135.369 67.4958C135.37 66.8578 135.261 66.5718 134.227 66.5718H132.885L132.886 66.2198H144.766L145.152 70.1358H144.822C143.597 67.4078 142.675 66.5718 140.937 66.5718H137.769C137.285 66.5718 137.108 66.7698 137.107 67.4738L137.094 72.7538H138.172C140.196 72.7538 141.124 71.2798 141.107 69.1458H141.437L141.419 76.5598H141.067C141.075 73.3698 138.985 73.1058 138.369 73.1058H137.093L137.078 79.2878C137.077 79.7058 137.231 79.9258 137.825 79.9258H140.597C141.565 79.9258 142.512 79.4638 143.174 78.8038C143.901 78.0778 144.41 77.0878 144.831 75.6358H145.161L144.996 80.2998ZM154.303 66.5938H152.807C151.751 66.5938 151.553 66.5938 151.55 67.7598L151.538 72.6218H152.22C155.41 72.6218 156.974 71.8518 156.98 69.5198C156.985 67.3858 156.041 66.5938 154.303 66.5938ZM149.785 79.0238L149.812 67.4958C149.814 66.9018 149.705 66.5718 148.671 66.5938H147.241L147.242 66.2198H154.7C157.472 66.2198 159.029 67.9358 159.026 69.5198C159.021 71.4338 157.236 72.6218 154.046 72.8418C157.519 73.8538 157.846 75.2398 158.016 77.4618C158.101 78.8698 158.231 79.5738 158.979 79.5738C159.595 79.5738 159.927 78.7818 159.93 77.7698L159.932 76.6918H160.284L160.282 77.6598C160.278 79.2218 159.549 80.4098 158.273 80.4098C156.909 80.4098 156.164 79.2218 156.168 77.4618C156.176 74.3818 155.365 72.9958 152.615 72.9958H151.537L151.523 79.0238C151.521 79.6398 151.631 79.9258 152.687 79.9258H154.117L154.116 80.2998H147.164L147.165 79.9258H148.639C149.673 79.9258 149.783 79.6398 149.785 79.0238ZM171.583 66.3958C171.011 66.3958 170.152 66.9238 170.149 68.1778C170.146 69.2558 170.54 70.2678 171.065 71.4118C172.298 70.8178 172.982 69.9158 172.986 68.5518C172.99 66.9678 172.265 66.3958 171.583 66.3958ZM169.83 72.5118C168.355 73.1498 167.516 74.2278 167.512 75.7238C167.51 76.8678 168.383 79.8598 170.517 79.8598C171.287 79.8598 172.322 79.2658 172.94 78.4958C171.668 76.5818 170.749 74.6458 169.83 72.5118ZM177.763 76.2958H178.115C178.134 77.4178 178.171 80.6078 175.751 80.6078C174.739 80.6078 173.949 79.8158 173.137 78.8038C172.078 79.9478 170.801 80.6078 169.459 80.6078C167.457 80.6078 166.031 79.0018 166.035 77.0218C166.041 74.5358 167.738 73.2818 169.699 72.1158C169.219 70.6638 169.199 69.8718 169.2 69.4538C169.205 67.1878 170.374 66.0218 171.65 66.0218C173.19 66.0218 173.802 67.4958 173.8 68.3978C173.796 69.9598 172.562 71.0598 171.174 71.7638C172.006 73.5458 172.881 75.3058 173.867 77.1318C174.441 76.5158 175.415 74.0078 175.417 73.0838C175.419 72.1598 174.848 71.6538 173.792 71.6538H173.418L173.419 71.3018H178.391L178.39 71.6538C178.016 71.6538 177.136 71.6538 176.629 72.1598C175.438 73.3258 175.964 74.3598 174.13 77.5278C174.897 78.8258 175.665 79.7938 176.457 79.7938C177.623 79.7938 177.759 77.8578 177.763 76.2958ZM183.766 74.6458H184.14C185.144 77.9458 186.195 80.2778 188.681 80.2778C190.265 80.2778 191.5 79.0458 191.503 77.5718C191.505 76.8018 191.265 76.0098 190.672 75.4158C189.29 74.0298 186.759 74.1838 185.091 72.5338C184.455 71.8738 183.995 70.9058 183.998 69.6298C184.003 67.8478 185.063 66.0218 187.153 66.0218C188.781 66.0218 189.659 66.9458 190.209 66.9458C190.451 66.9458 190.913 66.6818 190.937 66.1098H191.289L191.498 70.5758H191.146C190.25 68.2218 188.868 66.3518 187.086 66.3518C185.876 66.3518 184.62 67.3198 184.616 68.8598C184.615 69.4538 184.965 70.1798 185.448 70.6638C186.918 72.1378 189.844 72.1158 191.359 73.6558C192.237 74.5138 192.52 75.6578 192.518 76.4498C192.513 78.4958 191.012 80.6298 188.746 80.6298C186.7 80.6298 185.867 79.3098 185.031 79.3098C184.503 79.3098 184.194 79.7718 184.148 80.5198H183.752L183.766 74.6458ZM200.561 66.5718H199.197C198.273 66.5718 198.075 66.7038 198.073 67.2538L198.059 73.1498H200.017C202.349 73.1498 203.122 71.9398 203.127 69.6958C203.132 67.6718 202.255 66.5718 200.561 66.5718ZM198.058 73.5238L198.045 79.0018C198.044 79.6398 198.153 79.9258 199.187 79.9258H200.463L200.462 80.2998H193.994L193.995 79.9258H195.161C196.195 79.9258 196.306 79.6398 196.307 79.0018L196.335 67.4958C196.336 66.8798 196.249 66.5718 195.193 66.5718H193.983L193.984 66.2198H200.716C202.916 66.2198 205.179 67.5398 205.173 69.7838C205.168 71.9398 203.228 73.5238 199.906 73.5238H198.058ZM218.859 80.2998H206.671L206.672 79.9258H208.058C209.092 79.9258 209.203 79.6398 209.204 79.0018L209.232 67.4958C209.234 66.8578 209.124 66.5718 208.09 66.5718H206.748L206.749 66.2198H218.629L219.016 70.1358H218.686C217.46 67.4078 216.538 66.5718 214.8 66.5718H211.632C211.148 66.5718 210.972 66.7698 210.97 67.4738L210.957 72.7538H212.035C214.059 72.7538 214.987 71.2798 214.97 69.1458H215.3L215.282 76.5598H214.93C214.938 73.3698 212.849 73.1058 212.233 73.1058H210.957L210.942 79.2878C210.941 79.7058 211.094 79.9258 211.688 79.9258H214.46C215.428 79.9258 216.375 79.4638 217.037 78.8038C217.765 78.0778 218.273 77.0878 218.694 75.6358H219.024L218.859 80.2998ZM232.609 80.2998H220.421L220.422 79.9258H221.808C222.842 79.9258 222.953 79.6398 222.954 79.0018L222.982 67.4958C222.984 66.8578 222.874 66.5718 221.84 66.5718H220.498L220.499 66.2198H232.379L232.766 70.1358H232.436C231.21 67.4078 230.288 66.5718 228.55 66.5718H225.382C224.898 66.5718 224.722 66.7698 224.72 67.4738L224.707 72.7538H225.785C227.809 72.7538 228.737 71.2798 228.72 69.1458H229.05L229.032 76.5598H228.68C228.688 73.3698 226.599 73.1058 225.983 73.1058H224.707L224.692 79.2878C224.691 79.7058 224.844 79.9258 225.438 79.9258H228.21C229.178 79.9258 230.125 79.4638 230.787 78.8038C231.515 78.0778 232.023 77.0878 232.444 75.6358H232.774L232.609 80.2998ZM244.749 75.2838H245.101C245.07 79.1558 242.646 80.6518 240.6 80.6518C237.828 80.6518 235.107 77.9238 235.119 73.1278C235.124 70.6638 236.632 66.0438 240.306 66.0438C242.176 66.0438 243.184 67.4958 243.514 67.4958C243.954 67.4958 244.286 66.5278 244.42 66.0218H244.794L244.956 71.6978H244.582C243.644 68.1558 242.307 66.4178 240.371 66.4178C237.225 66.4178 237.194 70.0698 237.186 73.4798C237.174 78.1438 237.675 80.2998 240.755 80.2998C242.801 80.2998 244.764 78.5178 244.749 75.2838ZM247.004 66.5718L247.027 66.2198H253.649L253.648 66.5718H252.46C251.426 66.5718 251.315 66.8798 251.314 67.4958L251.301 72.8858H257.505L257.518 67.4958C257.519 66.8798 257.41 66.5718 256.354 66.5718H255.276L255.277 66.2198H261.635L261.634 66.5718H260.402C259.368 66.5718 259.257 66.8798 259.256 67.4958L259.228 79.0238C259.226 79.6398 259.336 79.9478 260.37 79.9478H261.58L261.579 80.2998H255.199L255.2 79.9478H256.322C257.378 79.9478 257.488 79.6398 257.49 79.0238L257.504 73.3478H251.3L251.286 79.0238C251.284 79.6398 251.394 79.9478 252.428 79.9478H253.572L253.571 80.2998H246.971L246.972 79.9478H248.402C249.436 79.9478 249.546 79.6398 249.548 79.0238L249.576 67.4958C249.577 66.8798 249.468 66.5718 248.434 66.5718H247.004ZM275.191 80.2998H263.003L263.004 79.9258H264.39C265.424 79.9258 265.535 79.6398 265.536 79.0018L265.564 67.4958C265.566 66.8578 265.456 66.5718 264.422 66.5718H263.08L263.081 66.2198H274.961L275.348 70.1358H275.018C273.792 67.4078 272.87 66.5718 271.132 66.5718H267.964C267.48 66.5718 267.304 66.7698 267.302 67.4738L267.289 72.7538H268.367C270.391 72.7538 271.319 71.2798 271.302 69.1458H271.632L271.614 76.5598H271.262C271.27 73.3698 269.181 73.1058 268.565 73.1058H267.289L267.274 79.2878C267.273 79.7058 267.426 79.9258 268.02 79.9258H270.792C271.76 79.9258 272.707 79.4638 273.369 78.8038C274.097 78.0778 274.605 77.0878 275.027 75.6358H275.357L275.191 80.2998ZM277.653 74.6458H278.027C279.031 77.9458 280.081 80.2778 282.567 80.2778C284.151 80.2778 285.386 79.0458 285.39 77.5718C285.392 76.8018 285.152 76.0098 284.559 75.4158C283.176 74.0298 280.646 74.1838 278.978 72.5338C278.342 71.8738 277.882 70.9058 277.885 69.6298C277.889 67.8478 278.95 66.0218 281.04 66.0218C282.668 66.0218 283.545 66.9458 284.095 66.9458C284.337 66.9458 284.8 66.6818 284.823 66.1098H285.175L285.385 70.5758H285.033C284.136 68.2218 282.755 66.3518 280.973 66.3518C279.763 66.3518 278.507 67.3198 278.503 68.8598C278.501 69.4538 278.852 70.1798 279.334 70.6638C280.805 72.1378 283.731 72.1158 285.245 73.6558C286.123 74.5138 286.406 75.6578 286.405 76.4498C286.4 78.4958 284.899 80.6298 282.633 80.6298C280.587 80.6298 279.754 79.3098 278.918 79.3098C278.39 79.3098 278.081 79.7718 278.035 80.5198H277.639L277.653 74.6458ZM5.82917 88.3738C5.25717 88.3738 4.8607 88.5718 4.4858 88.9458C3.58163 89.8478 2.75812 93.8078 2.75579 94.7758C2.7531 95.8978 3.27967 96.4918 4.15967 96.4918C6.51367 96.4918 7.51382 92.2678 7.51826 90.4198C7.52185 88.9238 6.68717 88.3738 5.82917 88.3738ZM5.74212 87.9778C7.70012 87.9778 8.79479 90.1998 8.7886 92.7738C8.77956 96.5358 5.94919 102.52 2.49519 102.52C1.26319 102.52 0.231565 101.53 0.234314 100.386C0.236586 99.4398 0.810331 98.7138 1.44833 98.7138C2.08633 98.7138 2.34933 99.1318 2.3479 99.7258C2.34695 100.122 2.03715 100.87 1.20115 100.87C1.02515 100.87 0.849045 100.914 0.848622 101.09C0.847935 101.376 1.44003 102.168 2.51803 102.168C3.31003 102.168 3.86104 101.75 4.16978 101.442C5.25037 100.364 5.9614 97.4378 6.38399 95.5238C5.81025 96.2498 5.03872 96.8878 4.09272 96.8878C2.39872 96.8878 1.10526 94.9958 1.10986 93.0818C1.11684 90.1778 4.18012 87.9778 5.74212 87.9778ZM16.5636 93.3898C14.8036 93.3898 13.1654 97.6358 13.1594 100.122C13.1571 101.112 13.3966 102.124 14.3426 102.124C16.7846 102.124 17.6148 95.3918 17.6161 94.8638C17.618 94.0498 17.3336 93.3898 16.5636 93.3898ZM9.6472 96.8878H9.2952C9.9388 94.5558 11.1085 93.0378 12.1645 93.0378C12.9785 93.0378 13.5484 93.8958 13.5455 95.1058C13.5438 95.8098 13.4544 96.3818 13.3209 97.0198C13.9631 95.2598 15.0025 93.0158 16.6085 93.0158C17.5985 93.0158 18.6954 94.2918 18.6896 96.7118C18.6847 98.7578 17.6251 100.276 16.6988 101.2C15.7285 102.168 15.0018 102.476 14.3198 102.476C13.2858 102.476 12.782 101.552 12.7639 99.9238L11.5425 104.676C11.4536 105.028 11.409 105.314 11.4084 105.534C11.4068 106.216 11.9346 106.304 13.1886 106.304L13.1877 106.678H7.77568L7.86458 106.304H8.21658C9.47058 106.304 9.95537 105.974 10.2219 104.918L12.4208 96.2058C12.5763 95.6118 12.7319 94.9518 12.7332 94.4018C12.7346 93.8078 12.6256 93.4118 12.1416 93.4118C11.0416 93.4118 10.0463 95.5898 9.6472 96.8878ZM20.3943 96.9978H20.0643C20.3775 94.8198 21.416 92.9498 22.472 92.9498C23.044 92.9498 23.6582 93.6978 23.6539 95.4798C23.653 95.8538 23.5401 97.0858 23.2743 97.8118C23.8933 96.5578 24.6239 94.6438 25.6384 93.6318C26.1015 93.1698 26.542 92.9718 26.916 92.9718C27.884 92.9718 28.123 94.1818 28.1204 95.2818C28.1183 96.1398 27.9622 97.0198 27.7404 97.7898C28.3148 96.7778 29.0898 94.7098 30.3247 93.4998C30.5893 93.2358 31.008 92.9718 31.426 92.9718C32.328 92.9718 32.8969 94.2258 32.8948 95.1278C32.8891 97.4818 31.1228 100.122 31.1197 101.398C31.1188 101.772 31.2723 101.992 31.6023 101.992C32.4163 101.992 33.4772 99.9458 33.6997 98.9118H34.0517C33.7619 100.496 32.5473 102.41 31.4913 102.41C30.6113 102.41 30.3059 101.31 30.3084 100.298C30.3137 98.0538 32.0361 95.3918 32.0392 94.1378C32.0404 93.6098 31.7111 93.3458 31.3811 93.3458C29.7971 93.3458 27.2967 99.3078 26.6515 102.3H25.3755L27.1086 95.1938C27.1975 94.8418 27.2865 94.4018 27.2874 94.0278C27.2883 93.6538 27.1791 93.3458 26.8051 93.3458C25.2651 93.3458 22.9193 99.0658 22.2075 102.3H20.9315L22.5534 95.6998C22.709 95.0398 22.8423 94.4898 22.8436 93.9618C22.8446 93.5438 22.6251 93.3458 22.3611 93.3458C21.5691 93.3458 20.5744 95.3038 20.3943 96.9978ZM83.3395 89.4298L83.3119 100.936C83.3096 101.882 83.5075 101.926 84.0795 101.926H85.4875C89.3815 101.926 90.202 99.2198 90.2118 95.1278C90.2182 92.4878 89.9802 90.8158 88.795 89.6278C88.2683 89.0998 87.2355 88.5938 86.0255 88.5938H84.0235C83.6055 88.5938 83.3412 88.7258 83.3395 89.4298ZM81.5737 101.002L81.6014 89.4958C81.6029 88.8578 81.4935 88.5938 80.4595 88.5938H79.0295L79.0304 88.2198H85.6964C86.9944 88.2198 88.688 88.3958 90.4214 90.2878C91.5844 91.5638 92.2842 93.3018 92.2798 95.1278C92.2721 98.3398 89.9966 102.3 85.6406 102.3H78.9746L78.9755 101.926H80.4275C81.4615 101.926 81.5722 101.64 81.5737 101.002ZM100.222 96.6458L98.1914 90.3538L96.1303 96.6458H100.222ZM94.6924 99.9238L98.5269 88.0658H99.2309L103.38 100.782C103.642 101.618 103.994 101.948 104.566 101.948H105.336L105.335 102.3H99.9447L99.9456 101.948H101.112C101.464 101.948 101.728 101.706 101.729 101.376C101.729 101.288 101.707 101.2 101.686 101.112L100.353 97.0198H96.0194L95.288 99.2638C95.1772 99.5938 95.1101 100.078 95.1094 100.342C95.1069 101.376 95.9416 101.926 96.8876 101.948H97.4816L97.4807 102.3H92.3327L92.3336 101.948H92.7516C93.7196 101.948 94.4043 100.826 94.6924 99.9238ZM111.507 88.1978L117.42 99.1318L117.351 91.4978C117.335 88.7478 115.884 88.5938 114.41 88.5938L114.411 88.2198H120.087L120.086 88.5938C118.392 88.5938 117.685 89.4958 117.703 91.1678L117.786 102.41H117.258L109.79 88.5718H109.746L109.721 98.9118C109.738 101.112 110.968 101.926 112.288 101.926H112.574L112.573 102.3H106.743L106.744 101.926H107.14C107.602 101.926 109.384 101.706 109.368 99.1318L109.388 91.0798C109.371 88.9898 108.008 88.5938 106.688 88.5938L106.689 88.1978H111.507ZM131.323 97.2838H131.675C131.644 101.156 129.221 102.652 127.175 102.652C124.403 102.652 121.681 99.9238 121.693 95.1278C121.699 92.6638 123.206 88.0438 126.88 88.0438C128.75 88.0438 129.758 89.4958 130.088 89.4958C130.528 89.4958 130.86 88.5278 130.994 88.0218H131.368L131.53 93.6978H131.156C130.219 90.1558 128.881 88.4178 126.945 88.4178C123.799 88.4178 123.768 92.0698 123.76 95.4798C123.749 100.144 124.249 102.3 127.329 102.3C129.375 102.3 131.338 100.518 131.323 97.2838ZM135.676 101.002L135.704 89.4958C135.705 88.8578 135.596 88.5718 134.562 88.5718H133.264L133.265 88.2198H139.931L139.93 88.5718H138.588C137.554 88.5718 137.443 88.8578 137.442 89.4958L137.414 101.002C137.412 101.64 137.522 101.926 138.556 101.926H139.854L139.853 102.3H133.165L133.166 101.926H134.53C135.564 101.926 135.674 101.64 135.676 101.002ZM146.548 88.1978L152.461 99.1318L152.392 91.4978C152.376 88.7478 150.925 88.5938 149.451 88.5938L149.452 88.2198H155.128L155.127 88.5938C153.433 88.5938 152.726 89.4958 152.744 91.1678L152.827 102.41H152.299L144.831 88.5718H144.787L144.762 98.9118C144.779 101.112 146.009 101.926 147.329 101.926H147.615L147.614 102.3H141.784L141.785 101.926H142.181C142.643 101.926 144.425 101.706 144.409 99.1318L144.429 91.0798C144.412 88.9898 143.049 88.5938 141.729 88.5938L141.73 88.1978H146.548ZM169.271 96.1618H168.369C167.445 96.1618 167.224 96.4698 167.223 97.0858L167.21 102.652H166.858C166.619 101.376 166.135 101.024 165.827 101.024C165.123 101.024 164.768 102.63 162.414 102.63C160.94 102.63 159.885 102.124 158.853 101.09C157.954 100.166 156.791 98.5378 156.8 95.1718C156.808 91.6958 159.061 88.0218 162.317 88.0218C164.341 88.0218 164.976 89.2758 165.614 89.2758C165.966 89.2758 166.275 88.8138 166.474 88.1318H166.804L166.991 93.0158H166.661C166.008 90.0238 164.252 88.3738 162.382 88.3738C161.524 88.3738 160.709 88.6598 160.092 89.2758C159.232 90.1338 158.854 91.6078 158.844 95.6998C158.837 98.7798 158.965 100.32 160.041 101.354C160.655 101.97 161.38 102.3 162.326 102.3C164.724 102.3 165.476 100.606 165.48 99.1978L165.485 97.0858C165.486 96.4698 165.245 96.1618 164.343 96.1618H163.287L163.288 95.8098H169.272L169.271 96.1618ZM5.86522 110C7.49322 110 8.70036 111.188 8.69735 112.442C8.6937 113.96 7.54748 114.884 4.81536 116.6C6.84005 116.314 8.11103 118.404 8.10701 120.076C8.10151 122.364 5.74228 124.542 3.25628 124.542C1.62828 124.542 0.00297475 123.42 0.00736169 121.594C0.0103216 120.362 0.760277 119.548 1.46428 119.548C2.05828 119.548 2.34322 119.988 2.34211 120.45C2.34105 120.89 2.00894 121.77 1.10694 121.77C0.578939 121.77 0.556146 122.1 0.555617 122.32C0.553979 123.002 1.60728 124.124 2.81728 124.124C5.47928 124.124 6.50196 119.68 6.50481 118.492C6.50703 117.568 6.06867 116.886 4.99067 116.886C4.17667 116.886 3.60288 117.634 3.25088 117.634C3.11888 117.634 3.05309 117.546 3.0534 117.414C3.0543 117.04 4.46325 116.644 5.43353 115.698C6.35975 114.774 6.89129 113.3 6.89435 112.024C6.89737 110.77 6.21626 110.396 5.53427 110.396C4.87426 110.396 3.44321 110.836 3.44162 111.496C3.44083 111.826 4.14494 111.782 4.14335 112.442C4.14145 113.234 3.45823 113.74 2.99623 113.74C2.60023 113.74 2.18281 113.498 2.18472 112.706C2.18736 111.606 3.75322 110 5.86522 110ZM14.0468 115.39C13.6728 115.39 13.276 115.72 13.1216 115.874C12.3277 116.666 10.7103 121.396 10.7061 123.156C10.7054 123.442 10.8358 124.102 11.4518 124.102C13.0138 124.102 15.1803 119.724 15.1863 117.238C15.1895 115.918 14.6628 115.39 14.0468 115.39ZM17.8622 120.626H18.1702C17.7685 123.002 16.5109 124.476 15.7189 124.476C15.1909 124.476 14.4667 123.75 14.4702 122.276C14.4709 121.99 14.5825 121.33 14.6495 120.89C13.4109 123.64 12.309 124.454 11.451 124.454C10.241 124.454 9.71694 122.804 9.71995 121.55C9.72841 118.03 12.5736 115.038 14.1136 115.038C15.0156 115.038 15.5415 115.896 15.5387 117.084L15.5374 117.634L16.1813 115.148H17.4133L15.5258 122.43C15.4592 122.716 15.3481 123.134 15.3474 123.464C15.3465 123.816 15.4339 124.08 15.7639 124.08C15.8959 124.08 17.0844 123.86 17.8622 120.626ZM19.4606 118.998H19.1306C19.4438 116.82 20.4823 114.95 21.5383 114.95C22.1103 114.95 22.7245 115.698 22.7202 117.48C22.7193 117.854 22.6064 119.086 22.3406 119.812C22.9596 118.558 23.6902 116.644 24.7047 115.632C25.1678 115.17 25.6082 114.972 25.9822 114.972C26.9502 114.972 27.1893 116.182 27.1867 117.282C27.1846 118.14 27.0285 119.02 26.8067 119.79C27.3811 118.778 28.1561 116.71 29.391 115.5C29.6556 115.236 30.0742 114.972 30.4922 114.972C31.3942 114.972 31.9632 116.226 31.9611 117.128C31.9554 119.482 30.1891 122.122 30.186 123.398C30.1851 123.772 30.3386 123.992 30.6686 123.992C31.4826 123.992 32.5435 121.946 32.766 120.912H33.118C32.8282 122.496 31.6136 124.41 30.5576 124.41C29.6776 124.41 29.3722 123.31 29.3746 122.298C29.38 120.054 31.1024 117.392 31.1054 116.138C31.1067 115.61 30.7773 115.346 30.4473 115.346C28.8633 115.346 26.363 121.308 25.7178 124.3H24.4418L26.1749 117.194C26.2637 116.842 26.3528 116.402 26.3537 116.028C26.3546 115.654 26.2453 115.346 25.8713 115.346C24.3313 115.346 21.9856 121.066 21.2738 124.3H19.9978L21.6197 117.7C21.7753 117.04 21.9086 116.49 21.9099 115.962C21.9109 115.544 21.6913 115.346 21.4273 115.346C20.6353 115.346 19.6406 117.304 19.4606 118.998ZM88.1729 119.284H88.5249C88.4936 123.156 86.07 124.652 84.024 124.652C81.252 124.652 78.5306 121.924 78.5421 117.128C78.548 114.664 80.0551 110.044 83.7291 110.044C85.5991 110.044 86.6076 111.496 86.9376 111.496C87.3776 111.496 87.71 110.528 87.8432 110.022H88.2172L88.3795 115.698H88.0055C87.0681 112.156 85.7302 110.418 83.7942 110.418C80.6482 110.418 80.6175 114.07 80.6093 117.48C80.5981 122.144 81.0989 124.3 84.1789 124.3C86.2249 124.3 88.1872 122.518 88.1729 119.284ZM96.7319 118.646L94.7011 112.354L92.6399 118.646H96.7319ZM91.2021 121.924L95.0366 110.066H95.7406L99.89 122.782C100.152 123.618 100.503 123.948 101.075 123.948H101.845L101.844 124.3H96.4544L96.4552 123.948H97.6212C97.9732 123.948 98.2378 123.706 98.2386 123.376C98.2388 123.288 98.217 123.2 98.1952 123.112L96.863 119.02H92.529L91.7977 121.264C91.6869 121.594 91.6197 122.078 91.6191 122.342C91.6166 123.376 92.4513 123.926 93.3972 123.948H93.9912L93.9904 124.3H88.8424L88.8432 123.948H89.2612C90.2292 123.948 90.9139 122.826 91.2021 121.924ZM110.347 110.594H108.851C107.795 110.594 107.597 110.594 107.594 111.76L107.583 116.622H108.265C111.455 116.622 113.019 115.852 113.024 113.52C113.029 111.386 112.085 110.594 110.347 110.594ZM105.829 123.024L105.857 111.496C105.859 110.902 105.749 110.572 104.715 110.594H103.285L103.286 110.22H110.744C113.516 110.22 115.074 111.936 115.07 113.52C115.066 115.434 113.281 116.622 110.09 116.842C113.564 117.854 113.891 119.24 114.061 121.462C114.146 122.87 114.276 123.574 115.024 123.574C115.64 123.574 115.972 122.782 115.974 121.77L115.977 120.692H116.329L116.327 121.66C116.323 123.222 115.594 124.41 114.318 124.41C112.954 124.41 112.209 123.222 112.213 121.462C112.221 118.382 111.41 116.996 108.66 116.996H107.582L107.567 123.024C107.566 123.64 107.675 123.926 108.731 123.926H110.161L110.16 124.3H103.208L103.209 123.926H104.683C105.717 123.926 105.828 123.64 105.829 123.024ZM125.236 110.594H123.74C122.684 110.594 122.486 110.594 122.483 111.76L122.471 116.622H123.153C126.343 116.622 127.907 115.852 127.913 113.52C127.918 111.386 126.974 110.594 125.236 110.594ZM120.718 123.024L120.746 111.496C120.747 110.902 120.638 110.572 119.604 110.594H118.174L118.175 110.22H125.633C128.405 110.22 129.963 111.936 129.959 113.52C129.954 115.434 128.169 116.622 124.979 116.842C128.453 117.854 128.779 119.24 128.95 121.462C129.034 122.87 129.165 123.574 129.913 123.574C130.529 123.574 130.861 122.782 130.863 121.77L130.866 120.692H131.218L131.215 121.66C131.212 123.222 130.483 124.41 129.207 124.41C127.843 124.41 127.098 123.222 127.102 121.462C127.109 118.382 126.299 116.996 123.549 116.996H122.471L122.456 123.024C122.455 123.64 122.564 123.926 123.62 123.926H125.05L125.049 124.3H118.097L118.098 123.926H119.572C120.606 123.926 120.717 123.64 120.718 123.024ZM135.387 123.002L135.414 111.496C135.416 110.858 135.307 110.572 134.273 110.572H132.975L132.976 110.22H139.642L139.641 110.572H138.299C137.265 110.572 137.154 110.858 137.152 111.496L137.125 123.002C137.123 123.64 137.233 123.926 138.267 123.926H139.565L139.564 124.3H132.876L132.877 123.926H134.241C135.275 123.926 135.385 123.64 135.387 123.002ZM148.724 118.646L146.693 112.354L144.632 118.646H148.724ZM143.194 121.924L147.029 110.066H147.733L151.882 122.782C152.144 123.618 152.495 123.948 153.067 123.948H153.837L153.837 124.3H148.447L148.447 123.948H149.613C149.965 123.948 150.23 123.706 150.231 123.376C150.231 123.288 150.209 123.2 150.187 123.112L148.855 119.02H144.521L143.79 121.264C143.679 121.594 143.612 122.078 143.611 122.342C143.609 123.376 144.443 123.926 145.389 123.948H145.983L145.983 124.3H140.835L140.835 123.948H141.253C142.221 123.948 142.906 122.826 143.194 121.924ZM166.748 118.162H165.846C164.922 118.162 164.701 118.47 164.699 119.086L164.686 124.652H164.334C164.095 123.376 163.612 123.024 163.304 123.024C162.6 123.024 162.244 124.63 159.89 124.63C158.416 124.63 157.361 124.124 156.33 123.09C155.43 122.166 154.268 120.538 154.276 117.172C154.284 113.696 156.537 110.022 159.793 110.022C161.817 110.022 162.452 111.276 163.09 111.276C163.442 111.276 163.751 110.814 163.951 110.132H164.281L164.467 115.016H164.137C163.484 112.024 161.728 110.374 159.858 110.374C159 110.374 158.186 110.66 157.568 111.276C156.708 112.134 156.331 113.608 156.321 117.7C156.313 120.78 156.442 122.32 157.517 123.354C158.132 123.97 158.857 124.3 159.803 124.3C162.201 124.3 162.953 122.606 162.956 121.198L162.961 119.086C162.963 118.47 162.722 118.162 161.82 118.162H160.764L160.764 117.81H166.748L166.748 118.162ZM179.867 124.3H167.679L167.68 123.926H169.066C170.1 123.926 170.21 123.64 170.212 123.002L170.24 111.496C170.241 110.858 170.132 110.572 169.098 110.572H167.756L167.757 110.22H179.637L180.023 114.136H179.693C178.468 111.408 177.546 110.572 175.808 110.572H172.64C172.156 110.572 171.979 110.77 171.978 111.474L171.965 116.754H173.043C175.067 116.754 175.995 115.28 175.978 113.146H176.308L176.29 120.56H175.938C175.945 117.37 173.856 117.106 173.24 117.106H171.964L171.949 123.288C171.948 123.706 172.102 123.926 172.696 123.926H175.468C176.436 123.926 177.383 123.464 178.044 122.804C178.772 122.078 179.281 121.088 179.702 119.636H180.032L179.867 124.3ZM182.328 118.646H182.702C183.707 121.946 184.757 124.278 187.243 124.278C188.827 124.278 190.062 123.046 190.065 121.572C190.067 120.802 189.827 120.01 189.235 119.416C187.852 118.03 185.322 118.184 183.654 116.534C183.017 115.874 182.557 114.906 182.56 113.63C182.565 111.848 183.625 110.022 185.715 110.022C187.343 110.022 188.221 110.946 188.771 110.946C189.013 110.946 189.476 110.682 189.499 110.11H189.851L190.06 114.576H189.708C188.812 112.222 187.43 110.352 185.648 110.352C184.438 110.352 183.182 111.32 183.178 112.86C183.177 113.454 183.527 114.18 184.01 114.664C185.48 116.138 188.407 116.116 189.921 117.656C190.799 118.514 191.082 119.658 191.08 120.45C191.075 122.496 189.574 124.63 187.308 124.63C185.262 124.63 184.429 123.31 183.593 123.31C183.065 123.31 182.756 123.772 182.71 124.52H182.314L182.328 118.646Z" fill="#226244"/>
</svg>
